<svg xmlns="http://www.w3.org/2000/svg" viewBox="0 0 100 100"><defs/><path fill="#fff" d="M59.7 4a6.2 6.2 0 00-6.1 6.1v21.6c0 3.4 2.5 6 6 6h3.8c-.3 2-1 3.1-3 4.3a2 2 0 001.1 3.6c3 0 10-.8 13.2-7.9h18.6c3.3 0 6-2.6 6-6V10.1C99.2 6.7 96.4 4 93 4zM8 10a4 4 0 00-4 3.9v59.5a4 4 0 004 4h83.4a4 4 0 004-4V41.7h-4v31.7-11.9H7.9V14h41.7v-4zm58.6 7.9a3 3 0 110 6 3 3 0 010-6zm9.9 0a3 3 0 110 6 3 3 0 010-6zm10 0a3 3 0 110 6 3 3 0 010-6zm-5 49.6h4v4h-4zM37.6 81.3v4h-6c-4 0-6 2-6 6v2h47.7v-2c0-4-2-6-6-6h-5.9v-4z"/></svg>