<svg xmlns="http://www.w3.org/2000/svg" viewBox="0 0 100 100"><defs/><path fill="#fff" d="M54.6 4a2 2 0 00-2 1.5l-.8 3.3c-2.9.9-5.6 2.4-7.8 4.5l-3.3-.9a2 2 0 00-2.3.9l-3 5.2a2 2 0 00.4 2.4l2.4 2.4a19.5 19.5 0 000 9l-2.4 2.4a2 2 0 00-.4 2.4l3 5.2a2 2 0 002.3.9l3.3-1c2.2 2.1 5 3.7 7.8 4.5l.8 3.4a2 2 0 002 1.5h6a2 2 0 001.8-1.5l.8-3.4c3-.8 5.7-2.4 8-4.5l3.2 1a2 2 0 002.3-1l3-5.1a2 2 0 00-.4-2.4l-2.4-2.4a19.8 19.8 0 000-9l2.4-2.4a2 2 0 00.4-2.4l-3-5.2a2 2 0 00-2.3-.9l-3.3 1c-2.2-2.2-5-3.7-7.9-4.6l-.8-3.3A2 2 0 0060.5 4zm3 17.8a6 6 0 015.9 6 6 6 0 01-6 6 6 6 0 01-6-6 6 6 0 016-6zM22.7 39.7a2 2 0 00-2 1.5l-.7 3.3c-3 .9-5.6 2.4-7.9 4.5L9 48.1a2 2 0 00-2.3.9l-3 5.2a2 2 0 00.4 2.4L6.4 59a19.7 19.7 0 000 9L4 70.4a2 2 0 00-.3 2.4l3 5.2a2 2 0 002.2.9l3.3-1c2.3 2.1 5 3.7 7.9 4.6l.8 3.3a2 2 0 002 1.5h5.9a2 2 0 001.9-1.5l.8-3.3c3-1 5.6-2.5 7.9-4.6l3.3 1A2 2 0 0045 78l3-5.2a2 2 0 00-.4-2.4L45 68a19.8 19.8 0 000-9l2.5-2.4a2 2 0 00.3-2.4L45 49a2 2 0 00-2.2-.9l-3.3 1c-2.3-2.2-5-3.7-7.9-4.6l-.8-3.3a2 2 0 00-2-1.5zm45.7 9.9a2 2 0 00-2 1.5l-.8 3.3c-3 1-5.6 2.5-7.8 4.6l-3.3-1a2 2 0 00-2.3.9l-3 5.2a2 2 0 00.4 2.4L52 69a19.7 19.7 0 000 9l-2.4 2.4a2 2 0 00-.4 2.4l3 5.2a2 2 0 002.3.9l3.3-1c2.2 2.2 4.9 3.7 7.8 4.6l.8 3.3a2 2 0 002 1.5h6a2 2 0 001.8-1.5l.8-3.3c3-.9 5.7-2.4 8-4.5l3.2.9a2 2 0 002.3-.9l3-5.2a2 2 0 00-.4-2.4l-2.4-2.4a19.7 19.7 0 000-9l2.4-2.4a2 2 0 00.4-2.4l-3-5.2a2 2 0 00-2.3-.9L85 59c-2.2-2.1-5-3.7-7.9-4.6l-.8-3.3a2 2 0 00-1.9-1.5zm-42.7 8a6 6 0 016 5.9 6 6 0 01-6 6 6 6 0 01-6-6 6 6 0 016-6zm45.6 7.9a8 8 0 110 15.8 8 8 0 010-15.8z"/></svg>