<svg width="1372" height="731" viewBox="0 0 1372 731" fill="none" xmlns="http://www.w3.org/2000/svg">
<path d="M631.92 208.689C629.951 208.655 628.068 209.305 626.51 210.487C626.51 210.487 588.464 239.509 588.464 295.277V381.779C588.464 391.351 596.203 399.09 605.757 399.09H657.672C667.227 399.09 674.966 391.351 674.966 381.779V312.571C674.966 303.016 667.227 295.277 657.672 295.277H622.726C622.486 279.867 624.01 246.906 638.821 222.37C640.704 219.767 640.978 216.326 639.523 213.449C638.067 210.59 635.122 208.723 631.92 208.689ZM753.044 208.689C751.075 208.655 749.192 209.305 747.668 210.487C747.668 210.487 709.57 239.509 709.57 295.277V381.779C709.57 391.351 717.31 399.09 726.881 399.09H778.796C788.35 399.09 796.09 391.351 796.09 381.779V312.571C796.09 303.016 788.35 295.277 778.796 295.277H743.815C743.61 279.867 745.134 246.906 759.962 222.37C761.828 219.767 762.102 216.326 760.646 213.449C759.191 210.59 756.246 208.723 753.044 208.689Z" fill="#FFF4DD"/>
<path fill-rule="evenodd" clip-rule="evenodd" d="M1425.31 140.407C1481.83 150.238 1541 138.058 1591.29 165.666C1646.07 195.739 1689.96 242.811 1715.62 299.788C1743.45 361.544 1766.3 433.919 1740.32 496.472C1714.8 557.92 1636.9 572.288 1585.1 614.053C1529.21 659.116 1497.1 750.433 1425.31 750.472C1353.52 750.512 1321.02 659.597 1265.39 614.229C1214.22 572.503 1131.62 558.94 1112.84 495.646C1094.06 432.374 1160.11 377.174 1176.03 313.124C1193.88 241.351 1150.52 141.694 1211.31 99.5731C1272.5 57.1763 1351.97 127.65 1425.31 140.407Z" fill="url(#paint0_radial)" stroke="#F4F8FF" stroke-width="10"/>
<path fill-rule="evenodd" clip-rule="evenodd" d="M-215.284 141.815C-163.363 117.415 -121.906 73.4706 -64.882 67.2035C-2.7634 60.3766 60.1957 73.7201 113.925 105.635C172.159 140.226 232.423 186.364 247.063 252.497C261.445 317.461 205.911 373.95 187.479 437.884C167.591 506.866 193.724 600.07 134.966 641.319C76.2123 682.565 -2.59514 626.787 -74.1918 621.58C-140.04 616.79 -215.46 653.11 -267.177 612.07C-318.876 571.044 -296.488 487.928 -320.222 426.344C-346.818 357.333 -439.536 300.632 -413.944 231.242C-388.185 161.399 -282.657 173.476 -215.284 141.815Z" fill="url(#paint1_radial)" stroke="#F7FAFF" stroke-width="10"/>
<defs>
<radialGradient id="paint0_radial" cx="0" cy="0" r="1" gradientUnits="userSpaceOnUse" gradientTransform="translate(1430.61 418.313) rotate(90) scale(332.159 321.102)">
<stop stop-color="#FDAAAA"/>
<stop offset="1" stop-color="#FFF8D6"/>
</radialGradient>
<radialGradient id="paint1_radial" cx="0" cy="0" r="1" gradientUnits="userSpaceOnUse" gradientTransform="translate(-51.3923 366.313) rotate(54.9621) scale(332.159 321.102)">
<stop stop-color="#FFC1C1"/>
<stop offset="1" stop-color="#FFF3B4"/>
</radialGradient>
</defs>
</svg>
