<svg width="134" height="134" viewBox="0 0 134 134" fill="none" xmlns="http://www.w3.org/2000/svg">
<path d="M65.9833 0C29.6044 0 0 29.6044 0 65.9833C0 102.372 29.6044 131.967 65.9833 131.967C102.372 131.967 131.967 102.372 131.967 65.9833C131.967 29.6044 102.372 0 65.9833 0ZM65.9833 10.1466C96.8762 10.1466 121.82 35.0904 121.82 65.9833C121.82 80.4986 116.264 93.6651 107.224 103.58C103.419 96.5742 92.2156 90.8265 80.2571 88.3502C80.2571 88.3502 74.5496 86.8 77.0862 81.2133C80.6396 76.6534 82.7937 71.6405 82.7937 70.1104C82.7937 70.1104 87.8368 66.0437 88.3502 59.9537C88.8636 54.367 87.2429 53.7731 87.2429 53.7731C89.2662 47.1698 89.8199 22.3266 74.0765 25.3767C71.5398 20.3033 54.8804 16.2769 47.2704 29.9769C43.7171 36.5802 42.1367 46.1934 45.68 53.3C45.68 53.8134 44.613 52.7565 44.0996 56.3098C44.0996 59.8631 45.7404 64.9163 47.2704 66.9396C47.7838 67.9462 48.7904 68.4797 49.8071 69.0032C49.8071 69.0032 50.7936 75.1435 55.3535 80.7402C56.3702 85.3002 51.7096 87.8771 51.7096 87.8771C39.3383 90.3534 28.0945 96.1011 24.2694 103.097C15.4817 93.2423 10.1466 80.2571 10.1466 65.9833C10.1466 35.0904 35.0904 10.1466 65.9833 10.1466Z" fill="url(#paint0_linear)"/>
<defs>
<linearGradient id="paint0_linear" x1="108" y1="24.5" x2="18.5" y2="103" gradientUnits="userSpaceOnUse">
<stop stop-color="#90D1FF"/>
<stop offset="1" stop-color="#5F65FF"/>
</linearGradient>
</defs>
</svg>
