<svg width="126" height="126" viewBox="0 0 126 126" fill="none" xmlns="http://www.w3.org/2000/svg">
<path d="M62.044 0C27.837 0 0 27.837 0 62.044C0 96.2605 27.837 124.088 62.044 124.088C96.2605 124.088 124.088 96.2605 124.088 62.044C124.088 27.837 96.2605 0 62.044 0ZM62.044 9.54086C91.0925 9.54086 114.547 32.9955 114.547 62.044C114.547 76.3459 108.859 89.2847 99.6301 98.7404C95.2288 92.7679 84.2682 87.6756 73.5252 85.4608C73.5252 85.4608 72.4841 84.0599 72.4841 80.2455C81.5422 80.2455 94.5568 83.9748 94.5568 83.9748C94.5568 30.5156 84.4764 22.9719 71.5944 22.9719C71.5944 22.9719 69.2091 19.0912 62.044 19.0912C38.6651 19.0912 29.5312 38.6273 29.5312 83.9748C29.5312 83.9748 44.8932 80.2455 52.0488 80.2455C52.0488 84.0599 50.5628 85.4608 50.5628 85.4608C39.8199 87.6756 28.8592 92.7679 24.4579 98.7404C15.2294 89.2847 9.54086 76.3459 9.54086 62.044C9.54086 32.9955 32.9955 9.54086 62.044 9.54086Z" fill="url(#paint0_linear)"/>
<defs>
<linearGradient id="paint0_linear" x1="24.5" y1="102" x2="93" y2="33.5" gradientUnits="userSpaceOnUse">
<stop stop-color="#841AEF"/>
<stop offset="1" stop-color="#D0AAF6"/>
</linearGradient>
</defs>
</svg>
