<svg xmlns="http://www.w3.org/2000/svg" fill="none" viewBox="0 0 33 33"><defs/><path fill="#29FF58" d="M24.8 2c-.7 0-1.3.2-1.8.7l-1.8 1.9a1 1 0 00-1.5 0l-3 2.9a1 1 0 000 1.4h.1l-.8.8-7.3-7.3c-.6-.6-1.6-.6-2.2 0L1.4 7.5c-.6.6-.6 1.6 0 2.2L8.7 17 2.8 23c-.2.3-.4.6-.4 1L2 28.2l-.3 2.5a.5.5 0 00.5.6l2.6-.3 4.4-.4c.3 0 .7-.2 1-.4l5.8-5.9 7.3 7.3c.3.3.7.5 1 .5.5 0 .9-.2 1.2-.5l5-5.1c.7-.6.7-1.6 0-2.2L23.4 17l.8-.8a1 1 0 001.4 0l3-2.9c.4-.4.4-1 0-1.5l1.8-1.8a2.6 2.6 0 000-3.6l-3.7-3.7c-.5-.5-1.1-.7-1.8-.7zM7.6 3c.1 0 .3 0 .4.2l.3.3-1 1.1c-.3.2-.3.5 0 .7l.3.2c.1 0 .3 0 .4-.2l1-1 1.2 1-1.9 1.9a.5.5 0 00.4.9l.4-.2 1.8-1.8 1 1-1 1.2a.5.5 0 00.3.8l.4-.1 1.1-1.1 1.1 1-1.8 2c-.2.1-.2.4 0 .6a.5.5 0 00.7 0l1.8-1.8.8.8-5.9 5.8L2.1 9a.5.5 0 010-.7l5.1-5.1.4-.2zm17.2 0c.4 0 .8.2 1.1.5L29.5 7a1.5 1.5 0 010 2.2L27.7 11 22 5.3l1.8-1.8c.3-.3.7-.5 1.1-.5zm-4.4 2.3l3.7 3.6 3.3 3.3.3.4-.7.7a.5.5 0 00-.7 0l-.8.7c-.2.2-.2.6 0 .8l-.7.7-7.3-7.3.7-.7a.5.5 0 00.8 0l.7-.8c.2-.2.2-.5 0-.7l.7-.7zm.8 2.4l-.4.1-.7.8a.5.5 0 10.7.7l.7-.7c.2-.2.2-.6 0-.8a.5.5 0 00-.3-.1zM23 9.5c-.2 0-.3 0-.4.2l-.7.7c-.2.2-.2.5 0 .7a.5.5 0 00.7 0l.7-.7a.5.5 0 00-.3-.9zm-5.5.2l5.9 5.8L9.8 29.1l-.5-2.5L18 18c.2-.2.2-.5 0-.7a.5.5 0 00-.8 0L8.6 26l-1.2-.3-.3-1.2 7.1-7c.2-.3.2-.6 0-.8a.5.5 0 00-.7 0l-7.1 7-2.4-.4L17.5 9.7zm7.3 1.6c-.1 0-.3 0-.4.2l-.7.7a.5.5 0 00.4.9c.1 0 .2 0 .3-.2l.8-.7c.2-.2.2-.5 0-.7a.5.5 0 00-.4-.2zm-8 2.2c-.2 0-.3 0-.4.2L15 15c-.2.2-.2.6 0 .8a.5.5 0 00.7 0l1.4-1.5a.5.5 0 00-.3-.9zm5.8 4.3l.3.3-1 1.1a.5.5 0 10.6.7l1.1-1 1.1 1-1.8 1.9a.5.5 0 10.7.7l1.9-1.8 1 1-1 1.1a.5.5 0 10.7.8l1-1.1 1.2 1-1.8 1.9a.5.5 0 00.3.9c.2 0 .3 0 .4-.2l1.8-1.8.7.7c.2.2.2.6 0 .8l-5 5c-.3.3-.6.3-.8 0l-7.3-7.2 5.9-5.8zM3.4 24l2.7.6.3 1.5c0 .2.2.3.4.4l1.5.3.6 2.7-4 .3-1.8-1.8.3-4z"/></svg>