<svg xmlns="http://www.w3.org/2000/svg" fill="none" viewBox="0 0 31 38"><defs/><path fill="#FB6FBB" d="M15 0c-1.4 0-2.6 1-3 2.4H2.4C1 2.4 0 3.4 0 4.8v30.8C0 37 1 38 2.4 38h25.3c1.3 0 2.4-1 2.4-2.4V4.8c0-1.4-1-2.4-2.4-2.4h-9.6A3.1 3.1 0 0015 0zm0 1.6c1 0 1.6.7 1.6 1.6 0 .4.4.8.8.8h3.2v2.3H9.5V4h3.2c.4 0 .8-.4.8-.8 0-1 .7-1.6 1.5-1.6zm8.6 11.9h.6c.4.3.5.8.2 1.2l-3.1 4.7-.1.1-.3.2a.8.8 0 01-.6 0H20v-.1l-2.5-2.4a.8.8 0 010-1.1c.3-.4.9-.4 1.2 0l1.7 1.7 2.6-4c.1-.2.3-.3.5-.3zM6.3 15.8h8a.8.8 0 110 1.6h-8a.8.8 0 010-1.6zm12 8c.1 0 .3 0 .5.2l1.8 1.8 1.8-1.8c.3-.3.8-.3 1.1 0 .3.3.3.8 0 1.1L21.7 27l1.8 1.8c.3.3.3.9 0 1.2l-.5.2c-.2 0-.5 0-.6-.2L20.6 28 18.8 30l-.6.2c-.2 0-.4 0-.6-.2a.8.8 0 010-1.2l1.9-1.8-1.9-1.8a.8.8 0 010-1.1l.6-.3zM6.2 26h8a.8.8 0 110 1.6h-8a.8.8 0 110-1.6z"/></svg>