<svg xmlns="http://www.w3.org/2000/svg" fill="none" viewBox="0 0 393 389"><defs/><circle r="7.3" fill="url(#paint0_linear)" transform="rotate(75 -26.7 355.7) skewX(-.2)"/><path fill="url(#paint1_linear)" d="M118.5 319.1l-.5-1.8c-.7-2.5-3.2-4-5.6-3.3l-4.9 1.4-1.6-6.2c-.7-2.5-3.2-4-5.6-3.4l-1.7.4a4.6 4.6 0 00-3.2 5.7l1.7 6.3-6.4 1.8a4.6 4.6 0 00-3 5.7l.4 1.8c.7 2.5 3.2 4 5.6 3.3l6.1-1.7 1.5 5.4c.7 2.5 3.2 4 5.6 3.4l1.7-.4a4.6 4.6 0 003.2-5.7l-1.6-5.5 5.2-1.5a4.6 4.6 0 003.1-5.7z"/><path fill="url(#paint2_linear)" d="M235.6 29.8l-1 .6a3.2 3.2 0 00-1.5 4.3l1.6 3.2-3.8 2a3.2 3.2 0 00-1.4 4.2l.6 1.2a3.1 3.1 0 004.1 1.5l3.9-2 2 4.3a3.1 3.1 0 004.2 1.5l1.1-.5a3.2 3.2 0 001.4-4.3l-2-4 3.3-1.7a3.2 3.2 0 001.4-4.3l-.5-1.2a3.1 3.1 0 00-4.2-1.5l-3.4 1.7-1.6-3.5a3.1 3.1 0 00-4.2-1.5z"/><defs><linearGradient id="paint0_linear" x1="1.1" x2="11.3" y1="9.4" y2="3.9" gradientUnits="userSpaceOnUse"><stop stop-color="#9571F6"/><stop offset="1" stop-color="#C6B1FF"/></linearGradient><linearGradient id="paint1_linear" x1="118.2" x2="87.8" y1="317.9" y2="326.2" gradientUnits="userSpaceOnUse"><stop stop-color="#444B8C"/><stop offset="1" stop-color="#6ECBFF"/></linearGradient><linearGradient id="paint2_linear" x1="234.8" x2="244.9" y1="30.2" y2="50.3" gradientUnits="userSpaceOnUse"><stop stop-color="#FF2626"/><stop offset="1" stop-color="#FFC444"/></linearGradient></defs></svg>