<svg xmlns="http://www.w3.org/2000/svg" fill="none" viewBox="0 0 401 383"><defs/><path fill="#D8DEE8" fill-opacity=".3" d="M257.2 96.4a101.2 101.2 0 0136.3 137 97.7 97.7 0 01-134.9 36.2 101.2 101.2 0 01-36.2-137 97.7 97.7 0 01134.8-36.2zm-98 172.4a96.8 96.8 0 00133.5-35.9 100.3 100.3 0 00-36-135.7 96.8 96.8 0 00-133.5 35.9 100.3 100.3 0 0036 135.7z"/><circle r="8.7" fill="url(#paint0_linear)" transform="matrix(.49479 -.86902 .86175 .50735 168.1 274.5)"/><ellipse fill="url(#paint1_linear)" rx="12.2" ry="12.1" transform="matrix(.49479 -.86902 .86175 .50735 306.2 190.9)"/><path fill="#D8DEE8" fill-opacity=".3" d="M328.6 257.9c-39.6 69-127 92.6-195 52.9A144.6 144.6 0 0182 114c39.7-69 127-92.7 195-53A144.6 144.6 0 01328.6 258zM83.2 114.7a143.2 143.2 0 0051 194.9 140.8 140.8 0 00193.2-52.4 143.2 143.2 0 00-51-195 140.8 140.8 0 00-193.2 52.5z"/><ellipse fill="url(#paint2_linear)" rx="12.5" ry="12.6" transform="matrix(.86368 .50402 -.49807 .86713 75 127.9)"/><ellipse fill="url(#paint3_linear)" rx="6.1" ry="6.2" transform="matrix(.86368 .50402 -.49807 .86713 194 329.2)"/><path fill="#D8DEE8" fill-opacity=".3" d="M206.9 118.3a62.3 62.3 0 01-3.3 124.4 62.3 62.3 0 013.3-124.4zM203.6 242a61.7 61.7 0 003.2-123.3 61.7 61.7 0 00-3.2 123.3z"/><ellipse fill="url(#paint4_linear)" rx="5.4" ry="5.5" transform="matrix(-.90496 -.42548 .42038 -.90734 263.5 200.5)"/><circle r="2.7" fill="url(#paint5_linear)" transform="matrix(-.90496 -.42548 .42038 -.90734 204.7 118.4)"/><defs><linearGradient id="paint0_linear" x1="1.3" x2="13.6" y1="11.2" y2="4.7" gradientUnits="userSpaceOnUse"><stop stop-color="#FF2626"/><stop offset="1" stop-color="#FF8E26"/></linearGradient><linearGradient id="paint1_linear" x1="1.9" x2="18.9" y1="15.6" y2="6.5" gradientUnits="userSpaceOnUse"><stop stop-color="#9571F6"/><stop offset="1" stop-color="#C6B1FF"/></linearGradient><linearGradient id="paint2_linear" x1="1.9" x2="19.5" y1="16.2" y2="7" gradientUnits="userSpaceOnUse"><stop stop-color="#FF2626"/><stop offset="1" stop-color="#FF8E26"/></linearGradient><linearGradient id="paint3_linear" x1=".9" x2="9.6" y1="8" y2="3.4" gradientUnits="userSpaceOnUse"><stop stop-color="#9571F6"/><stop offset="1" stop-color="#C6B1FF"/></linearGradient><linearGradient id="paint4_linear" x1=".8" x2="8.4" y1="7" y2="3" gradientUnits="userSpaceOnUse"><stop stop-color="#FF2626"/><stop offset="1" stop-color="#FF8E26"/></linearGradient><linearGradient id="paint5_linear" x1=".4" x2="4.2" y1="3.5" y2="1.5" gradientUnits="userSpaceOnUse"><stop stop-color="#9571F6"/><stop offset="1" stop-color="#C6B1FF"/></linearGradient></defs></svg>