<svg width="1250" height="708" viewBox="0 0 1250 708" fill="none" xmlns="http://www.w3.org/2000/svg">
<path fill-rule="evenodd" clip-rule="evenodd" d="M185.793 121.98C244.182 165.19 322.042 306.629 167.158 527.499C109.272 610.046 51.2278 669.558 -2 707.306V0H4.89529C85.6016 37.3517 150.636 87.4085 185.585 121.802C185.652 121.868 185.717 121.923 185.793 121.98Z" fill="#F3F8FF"/>
<path fill-rule="evenodd" clip-rule="evenodd" d="M362.933 0C334.219 105.682 429.961 447.545 673.999 456.329C803.745 460.999 872.049 448.592 904.839 436.59C882.73 469.122 824.318 598.141 1077.5 680.208C1142.11 701.153 1201.5 689.002 1250 666.026V4.66058L1248.95 0L362.933 0Z" fill="#EDF1FA"/>
</svg>
