<svg width="494" height="56" viewBox="0 0 494 56" fill="none" xmlns="http://www.w3.org/2000/svg">
<g filter="url(#filter0_i)">
<path d="M65.4109 2.20169L64.8505 3.40263L52.8411 30.1434L44.5947 11.9693L40.7517 3.40263L40.1913 2.20169H37.4692L36.9087 3.40263L24.8994 30.1434L12.81 3.40263L12.2495 2.20169H0L1.281 5.164L23.5383 55.0428H25.9402L38.8302 26.5406L51.5601 55.0428H54.042L58.6056 44.7148L76.3794 5.164L77.7405 2.20169H65.4109Z" fill="white"/>
<path d="M82.2515 2.20169V13.4104H129.488V2.20169H82.2515ZM93.4602 32.4652H124.765V21.2565H93.4602L82.2515 21.1765V55.0428H129.488V43.8341H93.4602V32.4652Z" fill="white"/>
<path d="M148.738 34.3067H170.114C172.356 34.787 173.877 36.7886 173.877 39.0303C173.877 41.192 172.356 43.1135 170.274 43.674H148.738V34.3067ZM183.084 31.1842C182.204 29.583 181.083 28.1419 179.722 26.9409C179.562 26.7808 179.321 26.6207 179.161 26.4606C179.241 26.3805 179.321 26.2204 179.401 26.0603C179.401 25.9802 179.401 25.9802 179.482 25.9001C180.763 23.5783 181.483 20.8562 181.483 18.054C181.483 15.3319 180.763 12.6898 179.482 10.288C179.482 10.2079 179.401 10.1279 179.321 10.0478C176.519 5.08394 171.155 2.04156 165.391 2.04156H137.529V13.4104H166.672C168.753 13.9708 170.274 15.8923 170.274 18.054C170.274 20.3758 168.593 22.3774 166.351 22.8578H137.529V55.0428H165.391C166.031 55.0428 166.591 55.0428 167.232 54.9627C167.872 55.0428 168.433 55.0428 169.073 55.0428C174.918 55.0428 180.282 51.9204 183.084 46.7964C184.445 44.4746 185.166 41.7525 185.166 39.0303C185.166 36.2282 184.445 33.5861 183.084 31.1842Z" fill="white"/>
<path d="M227.825 2.20169V31.1842C227.825 37.9895 222.381 43.674 215.736 43.8341C215.576 43.8341 215.416 43.8341 215.256 43.8341C215.095 43.8341 214.935 43.8341 214.775 43.8341C208.13 43.674 202.686 37.9095 202.686 31.1842V2.20169H191.477V35.1874C191.477 39.5107 192.998 43.5138 195.8 46.5562C196.921 47.7571 198.042 48.7979 199.323 49.7587C203.887 53.2014 209.411 55.0428 215.256 55.0428C221.1 55.0428 226.544 53.2014 231.188 49.7587C232.469 48.7979 233.59 47.7571 234.631 46.6363C237.513 43.5939 239.034 39.5107 239.034 35.2674V2.20169H227.825Z" fill="white"/>
<path d="M247.145 2.12163V55.0428H258.354V2.12163H247.145Z" fill="white"/>
<path d="M297.603 23.0179H282.392C279.75 23.0179 277.588 20.8562 277.588 18.2142C277.588 15.5721 279.75 13.4104 282.392 13.4104H299.925C301.687 13.9708 302.888 15.5721 302.888 17.4936H313.856C313.856 16.0525 313.696 14.6914 313.296 13.4104C311.534 6.92537 305.61 2.20169 298.564 2.20169H282.392C276.627 2.20169 271.263 5.24406 268.461 10.288C267.1 12.6898 266.379 15.412 266.379 18.2142C266.379 21.0163 267.1 23.7384 268.461 26.1403C269.101 27.2612 269.822 28.2219 270.622 29.1026C273.665 32.3051 277.908 34.2266 282.392 34.2266H297.603C300.245 34.2266 302.327 36.3883 302.327 39.0303C302.327 41.6724 300.245 43.8341 297.603 43.8341H280.23C278.549 43.2736 277.348 41.6724 277.348 39.7509H266.379C266.379 41.192 266.539 42.5531 266.86 43.8341C268.701 50.3191 274.626 55.0428 281.671 55.0428H297.603C303.288 55.0428 308.652 52.0004 311.454 47.0366C312.895 44.5546 313.616 41.8325 313.616 39.0303C313.616 36.2282 312.895 33.506 311.454 31.1042C308.652 26.1403 303.288 23.0179 297.603 23.0179Z" fill="white"/>
<path d="M391.086 55.0428H402.294V32.4652H433.599V21.2565H391.086V55.0428ZM438.322 13.4104V2.20169H391.086V13.4104H438.322Z" fill="white"/>
<path d="M475.345 55.0428V21.2565H464.137V55.0428H475.345ZM446.363 2.20169V13.4104H494V2.20169H446.363Z" fill="white"/>
</g>
<g clip-path="url(#clip0)">
<path d="M366.966 28.4953C366.966 29.6961 365.989 30.6733 364.788 30.6733C363.586 30.6733 362.609 29.6961 362.609 28.4953C362.609 27.2935 363.586 26.3163 364.788 26.3163C365.989 26.3163 366.966 27.2935 366.966 28.4953Z" fill="url(#paint0_linear)"/>
<path d="M334.802 37.2672C334.802 38.4679 333.825 39.4451 332.624 39.4451C331.423 39.4451 330.445 38.4679 330.445 37.2672C330.445 36.0654 331.423 35.0882 332.624 35.0882C333.825 35.0882 334.802 36.0654 334.802 37.2672Z" fill="url(#paint1_linear)"/>
<path d="M345.524 11.9255C345.524 13.1274 344.546 14.1045 343.345 14.1045C342.143 14.1045 341.166 13.1274 341.166 11.9255C341.166 10.7248 342.143 9.74762 343.345 9.74762C344.546 9.74762 345.524 10.7248 345.524 11.9255Z" fill="url(#paint2_linear)"/>
<path d="M359.573 30.584C353.262 34.5632 345.97 36.6445 338.191 36.5136C337.926 34.5539 336.65 32.9124 334.906 32.1341C335.833 26.7366 337.917 21.5692 340.993 17.0263C343.298 18.0957 346.096 17.4871 347.743 15.4171C352.551 17.7003 356.875 20.9812 360.384 25.0113C359.112 26.6161 358.833 28.7451 359.573 30.584V30.584Z" fill="url(#paint3_linear)"/>
<path d="M371.571 38.3389C370.928 36.1857 370.111 34.0862 369.129 32.0577C370.456 30.4442 370.765 28.2492 369.981 26.355C371.168 25.0671 372.272 23.7073 373.288 22.2872C374.317 27.6277 373.769 33.2198 371.571 38.3389V38.3389Z" fill="url(#paint4_linear)"/>
<path d="M372.057 17.9121C370.802 19.9717 369.353 21.9153 367.733 23.7127C366.397 22.8859 364.778 22.6609 363.268 23.087C359.336 18.4743 354.431 14.7387 348.958 12.1857C349.001 11.0359 348.731 9.99441 348.177 9.06391C351.271 6.46137 354.721 4.37699 358.46 2.85266C364.697 5.94753 369.6 11.3375 372.057 17.9121V17.9121Z" fill="url(#paint5_linear)"/>
<path d="M354.005 1.10906C350.981 2.64305 348.157 4.5361 345.569 6.76776C343.066 5.68364 340.107 6.55975 338.606 8.91342C334.575 8.19555 330.446 8.06558 326.373 8.52643C333.707 0.84719 344.428 -1.70019 354.005 1.10906V1.10906Z" fill="url(#paint6_linear)"/>
<path d="M338.442 14.6646C334.886 19.7751 332.499 25.638 331.479 31.7665C329.754 32.1245 328.318 33.2747 327.568 34.8184C324.556 33.8928 321.671 32.6028 318.965 30.9678C318.172 24.61 319.569 18.0935 323.213 12.5136C327.927 11.5314 332.876 11.4232 337.737 12.2524C337.788 13.1252 338.037 13.9433 338.442 14.6646V14.6646Z" fill="url(#paint7_linear)"/>
<path d="M332.895 51.5633C326.707 48.1072 321.982 42.3324 319.907 35.4214C322.211 36.5899 324.615 37.5413 327.097 38.2669C327.479 40.3835 329.048 42.0906 331.089 42.6711C331.37 45.7057 331.974 48.6802 332.895 51.5633V51.5633Z" fill="url(#paint8_linear)"/>
<path d="M369.14 42.8076C362.076 53.3407 348.948 57.5775 337.273 53.5284C335.82 50.0207 334.902 46.3378 334.532 42.5507C335.833 42.0798 336.912 41.1414 337.566 39.9385C346.064 40.216 354.478 37.971 361.794 33.2467C363.144 34.1001 364.751 34.3135 366.211 33.9304C367.546 36.7608 368.529 39.7375 369.14 42.8076Z" fill="url(#paint9_linear)"/>
</g>
<defs>
<filter id="filter0_i" x="0" y="2.04156" width="494" height="57.0012" filterUnits="userSpaceOnUse" color-interpolation-filters="sRGB">
<feFlood flood-opacity="0" result="BackgroundImageFix"/>
<feBlend mode="normal" in="SourceGraphic" in2="BackgroundImageFix" result="shape"/>
<feColorMatrix in="SourceAlpha" type="matrix" values="0 0 0 0 0 0 0 0 0 0 0 0 0 0 0 0 0 0 127 0" result="hardAlpha"/>
<feOffset dy="4"/>
<feGaussianBlur stdDeviation="4.5"/>
<feComposite in2="hardAlpha" operator="arithmetic" k2="-1" k3="1"/>
<feColorMatrix type="matrix" values="0 0 0 0 0.64579 0 0 0 0 0.64579 0 0 0 0 0.64579 0 0 0 0.36 0"/>
<feBlend mode="normal" in2="shape" result="effect1_innerShadow"/>
</filter>
<linearGradient id="paint0_linear" x1="364.787" y1="26.3163" x2="364.787" y2="30.6733" gradientUnits="userSpaceOnUse">
<stop stop-color="#FF7C33"/>
<stop offset="1" stop-color="#FF3D38"/>
</linearGradient>
<linearGradient id="paint1_linear" x1="332.624" y1="35.0882" x2="332.624" y2="39.4451" gradientUnits="userSpaceOnUse">
<stop stop-color="#FF7C33"/>
<stop offset="1" stop-color="#FF3D38"/>
</linearGradient>
<linearGradient id="paint2_linear" x1="343.345" y1="9.74762" x2="343.345" y2="14.1045" gradientUnits="userSpaceOnUse">
<stop stop-color="#FF7C33"/>
<stop offset="1" stop-color="#FF3D38"/>
</linearGradient>
<linearGradient id="paint3_linear" x1="347.645" y1="15.4171" x2="347.645" y2="36.5194" gradientUnits="userSpaceOnUse">
<stop stop-color="#FF7C33"/>
<stop offset="1" stop-color="#FF3D38"/>
</linearGradient>
<linearGradient id="paint4_linear" x1="371.459" y1="22.2872" x2="371.459" y2="38.3389" gradientUnits="userSpaceOnUse">
<stop stop-color="#FF7C33"/>
<stop offset="1" stop-color="#FF3D38"/>
</linearGradient>
<linearGradient id="paint5_linear" x1="360.117" y1="2.85266" x2="360.117" y2="23.7127" gradientUnits="userSpaceOnUse">
<stop stop-color="#FF7C33"/>
<stop offset="1" stop-color="#FF3D38"/>
</linearGradient>
<linearGradient id="paint6_linear" x1="340.189" y1="0" x2="340.189" y2="8.91342" gradientUnits="userSpaceOnUse">
<stop stop-color="#FF7C33"/>
<stop offset="1" stop-color="#FF3D38"/>
</linearGradient>
<linearGradient id="paint7_linear" x1="328.596" y1="11.6967" x2="328.596" y2="34.8184" gradientUnits="userSpaceOnUse">
<stop stop-color="#FF7C33"/>
<stop offset="1" stop-color="#FF3D38"/>
</linearGradient>
<linearGradient id="paint8_linear" x1="326.401" y1="35.4214" x2="326.401" y2="51.5633" gradientUnits="userSpaceOnUse">
<stop stop-color="#FF7C33"/>
<stop offset="1" stop-color="#FF3D38"/>
</linearGradient>
<linearGradient id="paint9_linear" x1="351.836" y1="33.2467" x2="351.836" y2="55.0428" gradientUnits="userSpaceOnUse">
<stop stop-color="#FF7C33"/>
<stop offset="1" stop-color="#FF3D38"/>
</linearGradient>
<clipPath id="clip0">
<rect width="55.0428" height="55.0428" fill="white" transform="translate(318.748)"/>
</clipPath>
</defs>
</svg>
