<svg xmlns="http://www.w3.org/2000/svg" fill="none" viewBox="0 0 33 92"><defs/><path fill="url(#paint0_linear)" d="M32.3 23.9c0 9-7.2 16.4-16.1 16.4C7.2 40.3 0 33 0 24 0 14.8 7.2 7.4 16.2 7.4c8.9 0 16.1 7.4 16.1 16.5zm-29.6 0c0 7.5 6 13.7 13.5 13.7 7.4 0 13.4-6.2 13.4-13.7 0-7.6-6-13.7-13.4-13.7-7.5 0-13.5 6.1-13.5 13.7z"/><path fill="url(#paint1_linear)" d="M32.3 16.5c0 9-7.2 16.4-16.1 16.4C7.2 33 0 25.6 0 16.5 0 7.4 7.2 0 16.2 0 25 0 32.3 7.4 32.3 16.5zm-29.6 0c0 7.5 6 13.7 13.5 13.7 7.4 0 13.4-6.2 13.4-13.7 0-7.6-6-13.7-13.4-13.7-7.5 0-13.5 6.1-13.5 13.7z"/><path fill="url(#paint2_linear)" d="M32.3 32c0 9.2-7.2 16.5-16.1 16.5-9 0-16.2-7.3-16.2-16.4C0 23 7.2 15.6 16.2 15.6c8.9 0 16.1 7.4 16.1 16.5zM2.7 32c0 7.6 6 13.8 13.5 13.8 7.4 0 13.4-6.2 13.4-13.7 0-7.6-6-13.7-13.4-13.7-7.5 0-13.5 6.1-13.5 13.7z"/><path fill="url(#paint3_linear)" d="M32.3 42.1c0 9-7.2 16.5-16.1 16.5C7.2 58.6 0 51.2 0 42s7.2-16.5 16.2-16.5c8.9 0 16.1 7.4 16.1 16.5zm-29.6 0c0 7.6 6 13.7 13.5 13.7 7.4 0 13.4-6.1 13.4-13.7s-6-13.7-13.4-13.7c-7.5 0-13.5 6.1-13.5 13.7z"/><path fill="url(#paint4_linear)" d="M32.3 57.3c0 9-7.2 16.5-16.1 16.5-9 0-16.2-7.4-16.2-16.5s7.2-16.5 16.2-16.5c8.9 0 16.1 7.4 16.1 16.5zm-29.6 0c0 7.6 6 13.7 13.5 13.7 7.4 0 13.4-6.1 13.4-13.7s-6-13.7-13.4-13.7c-7.5 0-13.5 6.1-13.5 13.7z"/><path fill="url(#paint5_linear)" d="M32.3 49.9c0 9.1-7.2 16.5-16.1 16.5C7.2 66.4 0 59 0 49.9c0-9 7.2-16.5 16.2-16.5 8.9 0 16.1 7.4 16.1 16.5zm-29.6 0c0 7.6 6 13.7 13.5 13.7 7.4 0 13.4-6.1 13.4-13.7s-6-13.7-13.4-13.7c-7.5 0-13.5 6.1-13.5 13.7z"/><path fill="url(#paint6_linear)" d="M32.3 65.5c0 9.1-7.2 16.5-16.1 16.5C7.2 82 0 74.6 0 65.5 0 56.5 7.2 49 16.2 49c8.9 0 16.1 7.4 16.1 16.5zm-29.6 0c0 7.6 6 13.7 13.5 13.7 7.4 0 13.4-6.1 13.4-13.7s-6-13.7-13.4-13.7c-7.5 0-13.5 6.1-13.5 13.7z"/><path fill="url(#paint7_linear)" d="M32.3 75.5c0 9.1-7.2 16.5-16.1 16.5C7.2 92 0 84.6 0 75.5c0-9 7.2-16.4 16.2-16.4 8.9 0 16.1 7.3 16.1 16.4zm-29.6 0c0 7.6 6 13.7 13.5 13.7 7.4 0 13.4-6.1 13.4-13.7 0-7.5-6-13.7-13.4-13.7-7.5 0-13.5 6.2-13.5 13.7z"/><defs><linearGradient id="paint0_linear" x1="5.5" x2="32" y1="0" y2="92" gradientUnits="userSpaceOnUse"><stop stop-color="#FF7979"/><stop offset="1" stop-color="#FEC582"/></linearGradient><linearGradient id="paint1_linear" x1="5.5" x2="32" y1="0" y2="92" gradientUnits="userSpaceOnUse"><stop stop-color="#FF7979"/><stop offset="1" stop-color="#FEC582"/></linearGradient><linearGradient id="paint2_linear" x1="5.5" x2="32" y1="0" y2="92" gradientUnits="userSpaceOnUse"><stop stop-color="#FF7979"/><stop offset="1" stop-color="#FEC582"/></linearGradient><linearGradient id="paint3_linear" x1="5.5" x2="32" y1="0" y2="92" gradientUnits="userSpaceOnUse"><stop stop-color="#FF7979"/><stop offset="1" stop-color="#FEC582"/></linearGradient><linearGradient id="paint4_linear" x1="5.5" x2="32" y1="0" y2="92" gradientUnits="userSpaceOnUse"><stop stop-color="#FF7979"/><stop offset="1" stop-color="#FEC582"/></linearGradient><linearGradient id="paint5_linear" x1="5.5" x2="32" y1="0" y2="92" gradientUnits="userSpaceOnUse"><stop stop-color="#FF7979"/><stop offset="1" stop-color="#FEC582"/></linearGradient><linearGradient id="paint6_linear" x1="5.5" x2="32" y1="0" y2="92" gradientUnits="userSpaceOnUse"><stop stop-color="#FF7979"/><stop offset="1" stop-color="#FEC582"/></linearGradient><linearGradient id="paint7_linear" x1="5.5" x2="32" y1="0" y2="92" gradientUnits="userSpaceOnUse"><stop stop-color="#FF7979"/><stop offset="1" stop-color="#FEC582"/></linearGradient></defs></svg>