<svg width="114" height="157" viewBox="0 0 114 157" fill="none" xmlns="http://www.w3.org/2000/svg">
<path d="M10.2353 18.1681C11.5688 2.66042 29.9615 -4.75261 41.676 5.49615L110.366 65.5914C114.839 69.5044 114.932 76.4314 110.566 80.4636L33.6789 151.479C20.2605 163.872 -1.38251 153.272 0.182444 135.073L10.2353 18.1681Z" fill="url(#paint0_linear)"/>
<path d="M33.527 19.4804C35.2984 19.4005 38.7903 19.3327 38.6893 18.0627C38.6893 18.0627 38.8834 17.3421 38.2206 16.6426C37.3921 15.7681 34.0974 13.6234 30.2527 14.1433C26.1714 14.6952 21.5389 18.7886 21.1281 22.83C20.705 26.9924 22.1015 27.5984 23.5492 26.385C25.3282 24.8939 25.7063 24.244 27.6583 22.3769C29.3814 20.7287 32.1551 19.782 33.527 19.4804Z" fill="white"/>
<defs>
<linearGradient id="paint0_linear" x1="-5.5" y1="130.5" x2="111.5" y2="65.5" gradientUnits="userSpaceOnUse">
<stop stop-color="#FF9797"/>
<stop offset="1" stop-color="#FFC444"/>
</linearGradient>
</defs>
</svg>
