<svg xmlns="http://www.w3.org/2000/svg" viewBox="0 0 2633.5 1848.7"><defs><style>.a{fill:#e3eaff}.b{fill:#a9b9eb}.c{fill:#fff}.d{fill:#cdd8fa}.e{fill:#f5a3b7}.f{fill:#95a6db}.g{fill:#617ac9}.h{fill:#0e6a41}.i{fill:#3f964f}.j{fill:#201d40}.k{fill:#2c2858}.l{fill:#f37a50}.m{fill:#de623c}.n{fill:#494c7f}.o{fill:#0d0c1a}.p{fill:#e62552}.q{fill:#c4204a}.r{fill:#7f95db}.s{fill:#b4c2f0}.t{fill:#f3bc3d}</style></defs><path class="a" d="M262 1761C76 1559-17 1343 51 1022c46-213 191-238 324-366 66-63 24-154 23-246C395 177 656-4 895 0c259 4 371 265 589 279 85 1 162-49 237-89 224-118 579-43 597 243 5 154-113 329 62 410 140 65 224 161 249 392 33 302-141 468-369 545z"/><path class="b" d="M2475 1373s6 40-44 89c-50 50-60 95-60 95l-35 13s17-66 60-104c54-48 79-93 79-93zM2549 1420s-5 30-51 56c-48 28-65 58-65 58l-29 10s29-50 68-71c49-25 77-53 77-53zM2393 1416s-30 9-71 73c-32 52-30 86-50 118l48-25c11-24 1-46 28-95 26-46 45-71 45-71zM2098 1549s-21 24-19 99c2 62 28 79 29 94l22-23c-8-27-26-30-30-86-4-53-2-84-2-84zM2320 1439s-34 43-49 73c-21 43-12 73-30 118l-36 21s-4-56 24-107c48-86 91-105 91-105zM2227 1432a317 317 0 01-29 88c-42 84-19 166-19 166l-25 11s-40-66-2-135c39-73 75-130 75-130zM2316 1587s23 0 105 42c53 26 44 0 91 34-41-11-65 13-115-9a841 841 0 00-124-42z"/><path class="b" d="M2463 1702s-49 31-123-2a455 455 0 00-144-36l36-30s40-12 114 29c51 29 117 39 117 39zM2392 1758s-49 31-123-2a455 455 0 00-145-36l37-30s40-12 114 30c51 28 117 38 117 38zM2566 1582s-32 13-78-9c-47-23-86-25-86-25l18-10s26-7 72 19c33 18 74 25 74 25zM2373 1564s39 10 92 34c34 15 87 11 87 11s-53 37-102 11c-57-30-119-43-119-43z"/><path class="b" d="M2415 1543s48-38 104-29a301 301 0 00100-2s-47 40-97 27c-47-13-89 6-89 6z"/><path class="b" d="M2112 1744l-7-6c38-41 185-166 327-204l3 8a822 822 0 00-323 202zM2184 1493q-38-51-10-133 40 76 10 133zM2219 1418q-27-52 9-121 26 74-9 121zM2258 1344q-18-52 25-113 14 74-25 113zM2346 1190q-2 63-41 89-6-47 41-89zM2401 1175q-11 52-47 67 2-39 47-67z"/><path class="b" d="M2381 1245q16-36 68-46-28 45-68 46zM2317 1443q-57 66-121 59 34-55 121-59zM2263 1372q41-33 109-12-62 35-109 12zM2393 1314q-54 30-95 10 36-28 95-10zM2342 1283q36-28 95-10-54 30-95 10z"/><path class="b" d="M2167 1578c27-99 29-91 55-148q10-23 22-44a449 449 0 0158-78q37-43 64-56l2-2a2 2 0 012-1 3 3 0 012 0 5 5 0 012 2 3 3 0 010 2l-1 1a6 6 0 01-2 2l-2 1q-26 13-63 54a440 440 0 00-56 78 470 470 0 00-22 43l-2 4q38-44 116-36-59 51-116 36c-25 57-27 47-52 143zM1135 1676q-61 21-130-31 85-15 130 31zM1075 1619q-58 10-113-46 79-1 113 46zM1016 1560q-56 1-99-59 74 9 99 59zM896 1429q60 21 72 66-46-9-72-66zM899 1372q46 26 50 65-37-14-50-65z"/><path class="b" d="M959 1412q-29-26-22-79 33 41 22 79zM1128 1534q46 74 19 134-42-50-19-134zM1044 1564q-18-50 23-108 14 69-23 108zM1029 1422q12 60-20 94-16-44 20-94zM984 1461q-16-43 19-94 13 61-19 94z"/><path class="b" d="M1211 1718c-87-56-78-56-125-98l-35-34a449 449 0 01-56-79q-30-49-34-79l-1-2a2 2 0 010-2 3 3 0 010-2 5 5 0 013-1 3 3 0 012 1l1 1a6 6 0 011 2v2q5 29 33 77a440 440 0 0057 77 466 466 0 0034 34l3 3q-31-50 1-121 30 72-1 121c46 41 36 40 120 94zM1581 1358s8 33-32 78-45 83-45 83l-29 13s11-57 45-91c42-44 61-83 61-83zM1646 1394s-2 25-40 50c-39 26-51 52-51 52l-24 10s21-44 53-63c40-24 62-49 62-49zM1515 1399s-26 8-56 65c-25 46-21 75-37 103l40-24c8-21-2-39 18-82 20-40 35-62 35-62zM1272 1527s-17 21-10 85c5 52 27 65 29 77l17-20c-8-22-23-24-30-71-6-44-6-71-6-71zM1454 1422s-26 39-37 65c-16 37-7 62-20 101l-28 20s-7-47 14-92c35-76 71-94 71-94zM1375 1421a269 269 0 01-19 76c-32 73-8 142-8 142l-20 11s-38-54-10-115c30-64 57-114 57-114zM1459 1548s19-2 91 29c46 19 37-3 78 24-35-7-54 15-97-1a712 712 0 00-108-29z"/><path class="b" d="M1589 1637s-40 28-104 5a386 386 0 00-124-23l29-28s33-12 98 19c45 21 101 27 101 27zM1532 1688s-40 29-104 5a386 386 0 00-124-22l29-28s33-12 98 19c45 21 101 26 101 26zM1670 1529s-26 13-67-3c-41-17-74-16-74-16l15-9s21-8 62 12c28 13 64 16 64 16zM1505 1525s34 6 80 24c30 11 75 4 75 4s-43 34-87 15c-49-22-102-30-102-30z"/><path class="b" d="M1540 1505s39-35 86-30a255 255 0 0084-7s-37 36-80 27c-40-8-75 10-75 10z"/><path class="b" d="M1294 1691l-6-5c30-37 147-150 266-190l2 7a696 696 0 00-262 188zM146 1364s-11 35 27 85c39 50 42 91 42 91l29 16s-7-60-40-100c-42-49-58-92-58-92zM74 1396s0 27 38 57c39 30 50 59 50 59l25 13s-19-49-52-72c-40-28-61-57-61-57zM213 1412s26 12 54 74c22 50 16 80 30 111l-40-28c-7-23 5-41-13-88-17-44-31-69-31-69zM459 1567s16 24 4 91c-9 55-34 67-37 79l-17-23c10-23 27-23 38-73 10-46 12-74 12-74zM275 1442s25 43 34 71c14 41 2 66 13 109l28 23s12-49-7-99c-32-82-68-104-68-104zM358 1447a285 285 0 0015 82c27 80-3 150-3 150l20 13s44-54 19-120c-26-70-51-125-51-125zM260 1574s-21-3-99 24c-50 17-39-6-85 19 38-4 56 20 104 7a755 755 0 01116-23z"/><path class="b" d="M115 1658s40 33 110 14a409 409 0 01133-15l-29-31s-34-15-105 12c-49 19-109 20-109 20zM171 1717s40 33 110 14a409 409 0 01133-15l-29-31s-34-16-105 12c-49 19-109 20-109 20zM38 1538s27 16 71 2 80-12 80-12l-16-10s-21-10-66 7c-31 12-69 13-69 13zM213 1546s-36 4-87 19c-32 10-79-1-79-1s43 40 90 22c54-19 111-23 111-23z"/><path class="b" d="M178 1522s-39-39-90-38a270 270 0 01-88-14s37 41 83 35c43-5 78 17 78 17z"/><path class="b" d="M422 1739l7-5a747 747 0 00-266-222l-3 7a738 738 0 01262 220z"/><path class="c" d="M815 244q14-10 32-10c27 0 42 15 42 36 0 12-6 24-18 36-15 16-25 23-32 23a11 11 0 01-12-11c0-6 6-11 15-19a9 9 0 011-2c10-9 13-14 13-21 0-8-5-12-13-12a43 43 0 00-12 2l-11 3a12 12 0 01-12-13c0-4 2-8 7-12zm27 133c-12 0-20-9-20-20 0-10 8-19 20-19 11 0 19 9 19 19 0 11-8 20-19 20zM2174 773q11-8 26-8c21 0 32 12 32 28 0 9-4 19-14 28-11 13-20 19-25 19a9 9 0 01-9-9c0-5 4-9 11-15a7 7 0 011-1c8-8 11-12 11-17 0-6-4-10-10-10a33 33 0 00-10 2c-4 2-7 2-9 2a10 10 0 01-9-10c0-3 2-6 5-9zm22 104a15 15 0 01-16-16c0-7 6-15 16-15a15 15 0 0114 15c0 9-6 16-14 16z"/><path class="d" d="M1836 889h-325a10 10 0 01-11-10V599a10 10 0 0121 0v270h315a10 10 0 110 20z"/><path class="e" d="M1535 821a10 10 0 01-7-18l105-108a10 10 0 0113-2l50 32 52-60a10 10 0 0116 13l-59 68a10 10 0 01-13 2l-50-33-99 103a10 10 0 01-8 3z"/><path class="e" d="M1764 709l-15-30-32-10 71-35-24 75z"/><path class="c" d="M593 393a57 57 0 1157-58 57 57 0 01-57 58zm0-99a42 42 0 1041 41 42 42 0 00-41-41zM2467 1085a50 50 0 1150-50 50 50 0 01-50 50zm0-86a36 36 0 1036 36 36 36 0 00-36-36zM137 1079a38 38 0 1138-38 38 38 0 01-38 38zm0-65a27 27 0 1027 27 27 27 0 00-27-27z"/><path class="a" d="M2375 787a26 26 0 1126-26 26 26 0 01-26 26zm0-45a19 19 0 1019 19 19 19 0 00-19-19z"/><circle class="a" cx="319.9" cy="605.1" r="40.3" transform="rotate(-23 320 605)"/><path class="a" d="M1612 194a40 40 0 11-40-41 40 40 0 0140 41z"/><path class="c" d="M1942 615a26 26 0 11-26-26 26 26 0 0126 26zM2551 1152a26 26 0 11-26-26 26 26 0 0126 26z"/><path class="a" d="M2383 681a40 40 0 11-40-40 40 40 0 0140 40z"/><path class="c" d="M721 244a33 33 0 11-33-33 33 33 0 0133 33zM1007 956a33 33 0 11-32-33 33 33 0 0132 33z"/><ellipse class="f" cx="1334.8" cy="1758.3" rx="1101.1" ry="90.4"/><path class="g" d="M762 1767l-38-1 101-452 36 8-99 445zM1690 1767l38-1-100-452-37 8 99 445z"/><path class="h" d="M1457 1693a13 13 0 01-13-13v-242h26v242a13 13 0 01-13 13zM1132 1693a13 13 0 01-13-13v-242h27v242a13 13 0 01-14 13z"/><rect class="i" x="1089.9" y="1391.1" width="403.9" height="47.5" rx="21.7"/><path class="j" d="M1414 993c24 7 119 109 142 184-12 68-120 103-120 103l-2-52s36-24 52-51c-26-18-77-81-77-81zM1177 993c-24 7-86 105-111 193a1022 1022 0 00-116 90l60 4s80-20 122-66c18-36 49-118 49-118z"/><path class="f" d="M1335 974l-82 4-9 81 9 231 88-1 22-259-28-56z"/><path class="k" d="M1237 852c11-14 21-1 37-17s30-28 44-11 21 20 31 19 11 41 11 41 25-7 27-35c2-33-13-28-22-54s-40-42-55-35c-15 6-23 14-46 8s-42 1-42 31-34 20-23 57c4 14 16 27 22 26 7-2 8-22 16-30z"/><path class="l" d="M1353 880c-5 11-4 24 4 29s18 2 23-9 4-24-3-29-18-2-24 9z"/><path class="m" d="M1363 904a2 2 0 001 0 3 3 0 001-3c-1-7 0-12 2-15 3-3 8-2 8-2a2 2 0 003-2 2 2 0 00-2-3s-7-2-12 4c-3 4-4 10-3 19a2 2 0 002 2zM1266 995l29 22 29-22 4-56h-66l4 56z"/><path class="k" d="M1176 993l2 297c28 24 83 30 83 30l-10-337zM1416 993l-1 297c-28 24-81 31-81 31l7-338z"/><path class="n" d="M1211 1031l47 206-7-257-40 51zM1384 1017l-49 222 6-256 43 34z"/><path class="l" d="M1294 796c-85-2-66 112-59 130 3 10 25 48 59 48 35 0 56-38 59-48 7-18 29-129-59-130z"/><path class="k" d="M1279 878a4 4 0 00-1-8s-15-5-28 5a4 4 0 004 6c11-7 22-3 22-3a4 4 0 003 0zM1317 878a4 4 0 010-8c1 0 16-5 29 5a4 4 0 01-4 6c-11-7-22-3-22-3a4 4 0 01-3 0z"/><path d="M1333 890a7 7 0 11-7-7 7 7 0 017 7zM1275 889a7 7 0 11-7-7 7 7 0 017 7z"/><path class="m" d="M1298 894l10 22s-4 8-17 7c6-2 11-4 10-11l-3-18z"/><path class="j" d="M1303 1039l14 195-22 26-22-26 15-195h15z"/><path class="j" d="M1311 1018l-15-4-15 4 7 22 15-1 8-21z"/><path class="c" d="M1295 1014a72 72 0 01-26 22l-29-43 13-15zM1295 1014s14 16 28 21l26-47-13-14z"/><path class="k" d="M1227 872c9 4 12-49 50-24 26 17 75 15 65-9l20 17-18-57s-71-22-96 0-21 73-21 73z"/><path class="l" d="M1242 882c5 11 2 24-8 29s-22 0-28-11-2-24 8-29 22 0 28 11z"/><path class="m" d="M1227 905a3 3 0 01-1 0 3 3 0 01-2-3c3-7 2-12 0-15-3-4-10-3-10-3a3 3 0 01-1-5c1 0 10-1 15 5 3 4 4 11 1 19a3 3 0 01-2 2zM1298 945c-12 0-23-6-23-7a3 3 0 014-5c1 1 22 14 36-1a3 3 0 114 4 28 28 0 01-20 9z"/><path class="j" d="M1457 1340l-59-54h-195l-71 54 80 58h177l68-58z"/><path d="M1183 1655c-18 39-83 32-72 76s131-26 131-26c-2-11-9-35-13-45zM1409 1653c19 41 87 34 75 79s-137-27-137-27c2-11 10-37 14-47z"/><path class="k" d="M1238 1418c0-62-53-132-106-85-55 49 34 326 34 326 33 19 49 19 83 0 0 0-10-181-11-241zM1363 1418c0-62 52-106 94-78 45 30-29 325-29 325-12 6-50 10-76 3 1 0 10-190 11-250z"/><path class="h" d="M1833 1767a13 13 0 01-13-14v-239h26v239a13 13 0 01-13 14zM1927 1767a13 13 0 01-13-14v-239h27v239a13 13 0 01-14 14zM2051 1767a13 13 0 01-13-14v-239h27v239a13 13 0 01-14 14zM2146 1767a13 13 0 01-13-14v-239h26v239a13 13 0 01-13 14z"/><path class="i" d="M1997 1160v284a6 6 0 01-6 6h-176a32 32 0 00-32 32 32 32 0 0032 32h214a32 32 0 0032-32v-322a32 32 0 00-32-32 32 32 0 00-32 32z"/><path class="i" d="M2029 1128h139v327h-139z"/><path class="h" d="M2136 1160v284a6 6 0 01-6 6h-176a32 32 0 00-32 32 32 32 0 0032 32h214a32 32 0 0032-32v-322a32 32 0 00-32-32 32 32 0 00-32 32z"/><path class="l" d="M1857 1224c13 8 14 54 9 57-154 10-193 5-193 5l2-27s89-28 182-35z"/><path class="l" d="M2002 1139a649 649 0 01-138 142l-18-56s92-122 109-141c28-32 86-6 47 55zM1647 1256a198 198 0 0129 3l9 4-1 16c-12 17-51 20-54 20-10 0-14 1-14-1s-3-9 11-10c16 0 7-14-28-5-9 3-24-3-18-8 7-7 26-20 66-19z"/><path class="o" d="M1946 937c-3-39 8-73 39-90 31-18 71-1 71-1s33-12 63 22 7 62 20 86c7 14 44 17 34 64-2 14-19 23-32 24-24 1-47-8-57 1-32 31-103 20-113-8-3-9-67 8-61-51 3-31 38-12 36-47z"/><path class="l" d="M2004 1062l51-9 19 25-40 84-60-51 30-49z"/><path class="p" d="M1938 1263c1-16-24-81-11-114 10-26 26-70 46-77l31-10s-6 34 8 35c26 2 43-44 43-44 15-1 81 20 81 26 0 42-35 104-46 150-5 50 13 109 13 115 0 0-106 29-169-5-2-5 3-54 4-76z"/><path class="p" d="M2087 1293s23 59 29 96-27 61-27 61h-268s-29-46-20-79 27-37 27-37z"/><path class="m" d="M1817 1332c35-4 134 34 177 118h-119z"/><path class="m" d="M1855 1363a95 95 0 01-12-17 30 30 0 00-48-5c-49 54-155 179-178 194-7 4-45 27-82 22 0 0-18 7-6 22 6 7 99 15 99 15l8-28c54-40 122-37 180-111 31-41 39-92 39-92z"/><path class="j" d="M1610 1610l-38 24-5-6 30-29c-17-13-57-2-57-2-14-8-39-36-42-51 9-10 37 11 37 11-1 5 8 21 15 24 30 7 61-2 86-15 0 0 21 32-26 44z"/><path class="l" d="M1856 1371a18 18 0 0113 14c2 19 16 58-3 98-46 99-73 165-78 190 12 23-36 84-36 88l-35-11 27-41c17-27 20-61 23-87 11-111-9-182 72-247 5-4 11-6 17-4z"/><path class="j" d="M1805 1720l-3 45-8 1-4-42c-22 6-37 44-37 44-15 6-52 9-65 3-4-14 31-23 31-23 3 4 21 7 27 3 24-21 37-50 42-78 0 0 37 3 17 47z"/><path class="l" d="M2017 1021l42-6-4 38s-8 17-17 19l-34-10z"/><path class="l" d="M2097 965c-11 45-48 74-83 66s-55-51-44-96 48-74 83-66 55 52 44 96z"/><path d="M1987 947a6 6 0 11-3-9 6 6 0 013 9zM2036 959a7 7 0 11-3-9 7 7 0 013 9z"/><path class="o" d="M2043 953a2 2 0 01-1-1c-3-7-12-9-13-9a2 2 0 011-4c1 0 12 1 16 11a2 2 0 01-3 3zM1973 938a2 2 0 01-1-1 2 2 0 010-3 17 17 0 0117-4 2 2 0 01-2 4 12 12 0 00-11 3 2 2 0 01-3 1z"/><path class="m" d="M1991 960l-10 10a2 2 0 00-1 3c3 5 10 8 15 10a1 1 0 001-1c-5-4-7-7-8-9a3 3 0 010-2l4-10a1 1 0 00-1-1z"/><path class="l" d="M2080 966c-8 6-11 17-6 24s17 7 26 1 11-18 5-25-16-7-25 0z"/><path class="m" d="M2085 988a2 2 0 01-1-1c-3-4-4-9-1-13a11 11 0 0113-4 2 2 0 11-2 5 7 7 0 00-7 2c-1 2-1 5 1 8a2 2 0 01-3 3z"/><path class="c" d="M2029 996a2 2 0 00-1-3 133 133 0 01-36 0 2 2 0 00-2 3c3 4 10 10 20 10s16-6 19-10z"/><path class="o" d="M2098 961c-42-5-100-48-105-70 8-26 51-39 75-27s47 64 30 97z"/><path class="l" d="M2307 1001c-23-11-18-32-18-32-10 2-33 92-37 146-49-24-131-50-149-47 0 0-26 2-24 33 1 28 37 35 37 35s156 44 172 30c25-23 13-137 19-165z"/><path class="l" d="M2332 990c-10 4-24 4-25 14l-24-2-5-12c7-34 47-57 51-59 10-5 15-8 16-6s8 10-7 17c-19 9-1 21 34-9 9-7 30-9 25 1-4 11-20 37-65 56z"/><path class="h" d="M700 1770h-1a16 16 0 01-16-16v-270h33v270a16 16 0 01-16 16zM586 1770h-1a16 16 0 01-16-16v-270h32v270a16 16 0 01-15 16zM419 1754c0 9 7 16 16 16s16-7 16-16v-270h-32zM321 1770h-1a16 16 0 01-16-16v-270h33v270a16 16 0 01-16 16z"/><path class="i" d="M501 1055v344a7 7 0 007 7h213a39 39 0 0139 39 39 39 0 01-39 39H462a39 39 0 01-39-39v-390a39 39 0 0139-39 39 39 0 0139 39z"/><path class="i" d="M462 1412H293v-396h169z"/><path class="h" d="M332 1055v344a7 7 0 007 7h214a39 39 0 0139 39 39 39 0 01-39 39H293a39 39 0 01-39-39v-390a39 39 0 0139-39 39 39 0 0139 39z"/><path class="l" d="M792 1057c-10-11-23-16-23-36l1-23c1-14 4-25 6-26 7-1 9 2 10 10 1 7-3 15 2 18 4 4 9 6 23-10 17-20 20-31 27-26 5 4-3 14-19 34 12-7 26-38 35-30 7 6-21 35-30 41 18-7 30-34 35-31 11 6-11 31-27 39 17-3 23-19 27-16 8 6-16 32-35 41z"/><path class="m" d="M797 1009c2 5 4 11-1 18-4 6-13 7-13 7 6 2 13 1 16-5 5-7 3-16-2-20z"/><path class="q" d="M674 1118c36-28 89-89 89-89 21 9 32 32 32 32-25 91-103 166-139 171-32 5-114-151-74-227l16-3c46 22 76 116 76 116z"/><path class="l" d="M850 1723l38 10 16-35c-1-1-4-24-5-41l-63 8c3 18 8 41 14 58z"/><path class="j" d="M918 1743s13-22 30-24c0 0 32 2 44 16 3 4 2 13 0 19 0 3-3 7-13 10-14 5-33 7-67-2-42-11-49-6-64-11-16-5-11-25-7-44 0 0 12 24 77 36z"/><path class="k" d="M905 1695a162 162 0 0043 17c14 3 50 10 44 34-1 4-4 8-13 11-14 4-33 7-68-2-41-11-48-7-63-12-16-5-9-27-5-46 1 5 3 18 32 29 9 3 2-35 30-31z"/><path class="n" d="M900 1724a3 3 0 003-2c3-12 15-13 16-13a3 3 0 00-1-7c-6 1-18 5-21 18a3 3 0 002 4 3 3 0 001 0zM915 1730a3 3 0 003-2c3-12 15-13 16-13a3 3 0 000-7c-7 1-19 5-22 18a3 3 0 002 4 3 3 0 001 0z"/><path class="l" d="M699 1738l38 12 18-33c-2-2-7-26-8-43l-58 5c2 18 5 41 10 59z"/><path class="j" d="M636 1306c86 16 209 72 221 84 25 27 37 117 49 278l-76 5c-28-126-54-180-58-232 0 0-66 5-166-34-49-19-101-41-86-85 12-35 33-31 116-16z"/><path class="k" d="M539 1313c72 8 168 90 180 103 25 26 28 116 40 277l-76 7c-12-83-47-179-47-240l-172-39c-57-12-74-21-85-59-4-12-9-42-3-48 25-29 95-8 163-1z"/><path class="j" d="M765 1763s15-22 32-22c0 0 32 4 42 18 3 5 2 14 0 19-1 4-5 7-14 10-15 3-34 4-68-7-40-14-47-10-62-16-16-6-9-25-4-44 0 0 10 24 74 42z"/><path class="k" d="M756 1713a162 162 0 0042 20c13 4 49 14 41 38-1 3-4 7-14 9-14 4-33 5-67-7-41-13-48-9-63-15-16-7-7-28-1-47 0 5 1 18 29 31 9 4 5-34 33-29z"/><path class="n" d="M742 1743a3 3 0 003-2c3-12 15-13 16-13a3 3 0 000-6c-7 0-19 4-22 17a3 3 0 002 4 3 3 0 001 0zM757 1750a3 3 0 003-3c3-12 16-13 16-13a3 3 0 000-6c-6 0-19 4-22 17a3 3 0 002 4 4 4 0 001 1z"/><path class="m" d="M491 929h29l7 68-34 18-35-18 5-68h28z"/><path class="k" d="M488 921c-25 9-45-21-45-21-17 1-17-15-17-15-8 0-20-6-20-21 0-12 12-14 10-29-1-11-15-37 20-47 0 0-4-21 17-31 25-12 35 3 47 3 13 0 38-18 49 11 0 0 18-4 30 8 10 11 9 28 5 35 0 0 16 1 23 15 4 9 3 21-5 29a28 28 0 01-10 7c-6 2-3 19-8 23a125 125 0 01-24 17z"/><path class="l" d="M438 884c5 48 45 86 82 82s57-48 53-95-39-83-76-79-63 45-59 92z"/><path d="M553 888a6 6 0 104-8 6 6 0 00-4 8zM503 889a7 7 0 105-9 7 7 0 00-5 9z"/><path class="m" d="M533 889l15 21s-3 10-16 11c5-3 10-7 8-14l-7-18z"/><path class="k" d="M495 881a3 3 0 01-1 0 3 3 0 01-1-5c2-4 9-11 19-9a3 3 0 11-2 7c-7-2-12 5-12 5a3 3 0 01-3 2zM553 875a3 3 0 01-1-4c0-1 4-4 9-4 4 1 7 3 10 7a3 3 0 11-4 3c-2-3-4-4-6-4a8 8 0 00-5 2 3 3 0 01-3 0z"/><path class="k" d="M581 823l-83-47-78 64 24 62c-4-30 16-25 24-35s9-26 33-18c0 0 16-17 29-1 10 12 19 7 29 6 12-2 11 10 18 8z"/><path class="l" d="M448 880c8 8 9 20 3 26s-18 5-26-3-9-19-3-26 19-5 26 3z"/><path class="m" d="M440 903a2 2 0 001-1c4-4 5-9 3-13a12 12 0 00-12-6 2 2 0 001 4 7 7 0 017 4c1 2 0 5-2 7a2 2 0 002 5z"/><path class="c" d="M548 936a2 2 0 00-2-4 178 178 0 01-20 0 182 182 0 01-20-2 2 2 0 00-2 4c3 4 10 12 22 12s19-6 22-10z"/><path class="p" d="M376 1315s60 6 116 7c56-1 116-12 116-12s-7-103-7-142c1-46-3-106-3-166l-62-10-9-1s-13 27-69 0a70 70 0 00-11 0c-23 2-61 11-61 11 0 60-2 118-1 164l-9 149z"/><path class="l" d="M531 1166c-4-14-13-23-5-40l11-20c6-12 13-21 16-20 6 2 6 6 4 13-2 6-8 11-6 16 2 4 6 9 24 1 23-11 30-18 34-11 3 5-8 11-30 21 13-1 38-21 42-11 3 8-33 21-42 22 18 2 39-16 43-11 6 9-23 22-39 22 15 4 26-7 29-3 4 9-27 21-47 21h-34z"/><path class="q" d="M398 1152c45-3 123-25 123-25 12 19 9 44 9 44-71 62-177 82-210 67-30-14-9-195 66-236h3c25 43 9 150 9 150zM447 991c4 7 10 12 18 16 12 6 28 8 39 8 8-1 17-4 23-9s8-11 9-14l-10-1s-12 27-68 0a70 70 0 00-11 0z"/><path class="r" d="M603 1280h260l51-163a12 12 0 00-11-15H667a12 12 0 00-11 8z"/><path class="f" d="M622 1280h260l52-163a12 12 0 00-12-15H687a12 12 0 00-11 8z"/><path class="s" d="M775 1194c-2 11 3 21 12 23s19-3 22-13-3-20-12-23-19 3-22 13z"/><path class="r" d="M455 1263h167v17H438a17 17 0 0117-17zM1831 1280h-253l-50-158a11 11 0 0111-15h229a11 11 0 0110 8z"/><path class="f" d="M1811 1280h-252l-50-158a11 11 0 0110-15h229a11 11 0 0111 8z"/><path class="s" d="M1663 1197c2 10-3 20-12 22s-18-3-21-13 2-20 11-22 19 3 22 13z"/><path class="r" d="M1974 1264h-163v16h179a16 16 0 00-16-16z"/><path class="g" d="M2074 1324H357c-18 0-33-10-33-22s15-22 33-22h1717c19 0 33 10 33 22s-14 22-33 22z"/><path class="s" d="M1432 1270h-289l-11-166a19 19 0 0120-20h271a19 19 0 0119 20z"/><path class="f" d="M1432 1280h-289l-11-166a19 19 0 0120-21h271a19 19 0 0119 21z"/><path class="s" d="M1300 1194a17 17 0 11-17-17 17 17 0 0117 17z"/><path class="l" d="M1423 1269a8 8 0 011-2c-7-5-10-13-6-18a8 8 0 012-2c-3-5-4-10-1-14a9 9 0 014-3c-3-4-4-10-1-14 3-5 11-5 17-1s8 12 4 17a10 10 0 01-3 3c6 5 8 12 4 17a8 8 0 01-2 2c3 4 4 10 1 13a9 9 0 01-4 3c4 4 4 9 2 12-3 5-10 5-15 1s-7-10-3-14zM991 1289a8 8 0 01-2-2v1c-6 7-14 9-19 5a8 8 0 01-2-2c-5 3-10 3-13 0a9 9 0 01-3-4c-5 3-10 3-14 0-5-4-5-11 0-17s12-7 17-3a10 10 0 012 3c6-5 13-7 17-3a8 8 0 012 2c5-3 10-3 14 0a9 9 0 012 3c4-3 9-3 13 0s4 10 0 14-10 7-14 3z"/><path class="g" d="M399 1767l-39-1 101-452 37 8-99 445zM1986 1767l39-1-101-452-36 8 98 445z"/><path class="t" d="M1856 290l22 148a10 10 0 01-8 12l-257 39a10 10 0 01-12-9l-23-147a10 10 0 019-12l257-39a10 10 0 0112 8z"/><path d="M1856 290l1 8-104 102a33 33 0 01-39 7l-135-70-1-4a10 10 0 019-12l257-39a10 10 0 0112 8z" fill="#f3cd75"/><rect class="c" x="529.1" y="500.5" width="341" height="189" rx="37.9" transform="rotate(180 700 595)"/><path class="c" d="M577 681v70a5 5 0 0011 3l37-73z"/><path class="a" d="M574 560h248a17 17 0 0018-18 17 17 0 00-18-17H574a17 17 0 00-18 17 17 17 0 0018 18zM574 615h248a17 17 0 0018-18 17 17 0 00-18-17H574a17 17 0 00-18 17 17 17 0 0018 18z"/><rect class="a" x="556.3" y="634.8" width="189.3" height="34.7" rx="14.8" transform="rotate(180 651 652)"/><rect class="d" x="848.3" y="551.6" width="369" height="240.1" rx="41"/><path class="d" d="M1165 782v77a6 6 0 01-11 2l-40-79zM2140 602l-316-124a39 39 0 01-22-50l144-370a39 39 0 0151-22l316 123a39 39 0 0122 51l-145 370a39 39 0 01-50 22z"/><path class="c" d="M2024 169l31 12-108 276-31-12zM2071 187l31 12-108 276-31-12zM2117 205l31 12-108 276-31-12zM2163 223l31 12-107 276-31-12zM2210 241l31 12-108 276-31-12zM2034 144l31 12-6 15-31-12zM1978 151l31 12-5 14-32-12zM1960 197l31 12-5 14-31-12zM1942 243l31 12-5 14-31-12zM1924 289l31 12-5 14-31-12z"/><path class="c" d="M1924 289l31 12-5 14-31-12zM1906 335l31 12-5 14-32-12zM1888 381l31 12-5 15-31-13zM2080 162l31 12-5 15-32-12zM2127 180l31 12-6 15-31-12zM2173 198l31 13-6 14-31-12zM2220 217l31 12-6 14-31-12zM2262 202l-242-94a18 18 0 01-11-24 18 18 0 0124-10l242 94a18 18 0 0110 24 18 18 0 01-23 10z"/><path class="f" d="M1091 732a28 28 0 01-2 9c-5 15-22 25-42 25s-38-10-43-25a28 28 0 01-1-9z"/><path class="r" d="M1091 732a28 28 0 01-2 9h-85a28 28 0 01-1-9z"/><path class="t" d="M1139 583a92 92 0 10-165 56 116 116 0 0124 71v1h97v-1a116 116 0 0125-71 92 92 0 0019-56z"/><path class="c" d="M1061 700a2 2 0 01-3-3c1 0 11-32 19-64 14-56 7-65 3-67-11-4-19 2-25 8a46 46 0 00-4 5 90 90 0 016 13c5 14 6 26 3 33-2 6-6 9-12 8-6 0-10-3-12-9-3-7-2-17 1-27a71 71 0 018-18 46 46 0 00-11-13c-6-4-12-4-17 0-11 8-11 33-1 73a522 522 0 0019 58 2 2 0 11-5 2 527 527 0 01-19-59c-11-42-10-68 3-78 7-5 15-5 23 0a49 49 0 0111 13 49 49 0 014-5c9-9 19-12 30-8 6 2 9 11 8 27-1 11-3 27-8 46-8 32-19 63-19 64a2 2 0 01-2 1zm-13-116a67 67 0 00-7 14c-3 10-3 19-1 24 2 4 4 6 8 7s6-2 8-5c3-9-1-26-8-40z"/><rect class="f" x="988.9" y="699.1" width="115.5" height="35.6" rx="17.4"/><path class="t" d="M1204 587h-31a8 8 0 01-7-8 8 8 0 017-8h31a8 8 0 018 8 8 8 0 01-8 8zM920 587h-30a8 8 0 01-8-8 8 8 0 018-8h30a8 8 0 018 8 8 8 0 01-8 8zM939 523l-24-19a8 8 0 01-1-11 8 8 0 0110-1l24 18a8 8 0 012 11 8 8 0 01-11 2zM1153 523l24-19a8 8 0 001-11 8 8 0 00-11-1l-24 18a8 8 0 00-1 11 8 8 0 0011 2zM939 645l-24 18a8 8 0 00-1 11 8 8 0 0010 1l24-18a8 8 0 002-11 8 8 0 00-11-1zM1153 645l24 18a8 8 0 011 11 8 8 0 01-11 1l-24-18a8 8 0 01-1-11 8 8 0 0111-1z"/><rect class="d" x="956.2" y="144.1" width="338.6" height="234.8" rx="14.2"/><rect class="c" x="974.7" y="188" width="269.8" height="35.4" rx="15.2"/><rect class="c" x="974.7" y="252.3" width="162.8" height="17.7" rx="5.9"/><rect class="c" x="974.7" y="323.6" width="116.1" height="17.7" rx="5"/><rect class="c" x="974.7" y="285.7" width="197" height="17.7" rx="6.5"/><path class="q" d="M1261 389l8 28h-6c-77 2-104-104-66-103a14 14 0 0112 16 53 53 0 0048 58l4 1z"/><path class="e" d="M1344 344a74 74 0 01-3 14l-29-5c10-29-3-65-44-71a53 53 0 00-30 6c-17 8-30-16-14-25 56-31 128 17 120 81z"/><path class="p" d="M1341 358c-9 32-39 57-72 59l-8-28c27 0 45-16 51-36z"/><path class="q" d="M1288 335a26 26 0 11-26-26 26 26 0 0126 26z"/></svg>