<svg width="553" height="267" fill="none" xmlns="http://www.w3.org/2000/svg"><rect y="232" width="33.8" height="35" rx="16.9" fill="#EEDBFA"/><rect x="188.3" width="16.4" height="17" rx="8.2" fill="#F5A4B7"/><path fill-rule="evenodd" clip-rule="evenodd" d="M542 44c-2 0-3 2-3 3v4h-4a3 3 0 000 7h4v4a3 3 0 107 0v-4h4a3 3 0 000-7h-4v-4c0-1-2-3-4-3z" fill="#EF6262" fill-opacity=".4"/><path fill-rule="evenodd" clip-rule="evenodd" d="M400 4c-3 0-5 2-5 6v5h-6a5 5 0 101 11h5v7a5 5 0 1011 0v-7h7a5 5 0 10-1-11h-6v-5c0-4-3-6-6-6z" fill="#6488DF" fill-opacity=".3"/></svg>