<svg xmlns="http://www.w3.org/2000/svg" fill="none" viewBox="0 0 24 24"><defs/><path fill="#E6C7FF" d="M22.3 21.4H1.7V9.2c0-.5.4-1 1-1h18.7c.5 0 1 .5 1 1v12.2z"/><path fill="#F7EDFF" d="M22.3 12H1.7V9.2c0-.5.4-1 1-1h18.7c.5 0 1 .5 1 1V12z"/><path fill="#C171FF" d="M22.3 20a.6.6 0 01-.6-.5V9.2c0-.2-.1-.4-.3-.4H2.6c-.2 0-.4.2-.4.4v9c0 .3-.2.6-.5.6a.6.6 0 01-.6-.6v-9c0-.8.7-1.5 1.5-1.5h18.8c.8 0 1.5.7 1.5 1.5v10.3c0 .3-.3.6-.6.6z"/><path fill="#C171FF" d="M20.4 9.8H12c-.3 0-.6.2-.6.5s.3.6.6.6h8.4c.4 0 .6-.3.6-.6s-.2-.6-.6-.6zM7 10c-.2 0-.3.2-.3.3l.2.4.4.2c.2 0 .3 0 .4-.2l.2-.4c0-.1 0-.3-.2-.4a.6.6 0 00-.8 0zM5 10l-.1.3.1.4.4.2c.2 0 .3 0 .4-.2l.2-.4c0-.1 0-.3-.2-.4a.6.6 0 00-.8 0zM3.2 10l-.2.3c0 .2 0 .3.2.4l.4.2c.1 0 .3 0 .4-.2l.1-.4L4 10a.6.6 0 00-.8 0z"/><path fill="#F7EDFF" d="M15.7 9.7l-1.4-.6a1 1 0 01-.6-.9V4.7c0-.9-.3-1.7-.9-2.3a.9.9 0 00-1.3 0c-.5.6-.8 1.4-.8 2.3v3.5c0 .4-.3.8-.6 1l-1.4.4a1 1 0 00-.6 1v1h8.2v-1a1 1 0 00-.6-.9z"/><path fill="#C171FF" d="M13.7 4.7c0-.9-.3-1.7-.9-2.3a.9.9 0 00-1.3 0c-.5.6-.8 1.4-.8 2.3h3z"/><path fill="#F7EDFF" d="M20 20.8c-.3 0-.6 0-.9.2 0-1-.8-1.9-1.9-1.9H17c.4-.5.5-1.2.5-1.9a3.8 3.8 0 00-4.7-3.6l-.7-.1c-1.2 0-2.2 1-2.3 2h-.3c-1.7 0-3 1.3-3.2 3l-.6-.1a4.1 4.1 0 00-4 4.9h21.3a2.8 2.8 0 00-2.8-2.5z"/><path fill="#C171FF" d="M13.5 23.8H1a.6.6 0 01-.6-.6c0-.3.3-.5.6-.5h12.5c.3 0 .5.2.5.6 0 .3-.2.5-.5.5zM21 23.8h-3.8a.6.6 0 01-.5-.6c0-.3.2-.5.5-.5H21c.3 0 .5.2.5.6 0 .3-.2.5-.5.5z"/><path fill="#C171FF" d="M1.6 23.8a.5.5 0 01-.6-.5v-.8c0-2.6 2-4.8 4.7-4.7A3.7 3.7 0 019.4 15c.3 0 .5.2.5.6 0 .3-.2.5-.5.5-1.4 0-2.5 1-2.6 2.4l-.2.4h-1a3.6 3.6 0 00-3.5 4.3c0 .3-.1.6-.4.6h-.1zM22.8 23.8a.6.6 0 01-.5-.5 2.3 2.3 0 00-3-1.8h-.5a.6.6 0 01-.3-.5c0-.7-.6-1.3-1.3-1.3H17c-.2 0-.4 0-.6-.2a.5.5 0 010-.6 3.2 3.2 0 00-1.6-4.6.6.6 0 01-.3-.8c.1-.2.5-.4.8-.3a4.3 4.3 0 012.5 5.4c.8.2 1.5.9 1.8 1.7h.5c1.6 0 3 1.2 3.3 2.9 0 .3-.2.6-.5.6z"/><path fill="#F7EDFF" d="M10.9 18.2v-6.4h2.6v6.4"/><path fill="#C171FF" d="M13.5 18.8a.6.6 0 01-.6-.6v-6.4c0-.3.3-.6.6-.6s.6.3.6.6v6.4c0 .3-.3.6-.6.6zM10.9 18.8a.6.6 0 01-.6-.6v-6.4c0-.3.3-.6.6-.6s.5.3.5.6v6.4c0 .3-.2.6-.5.6zM10.9 21.6c-.2 0-.3 0-.4-.2a.5.5 0 01-.2-.4c0-.2 0-.3.2-.4.2-.2.6-.2.8 0l.1.4-.1.4-.4.2z"/><path fill="#C171FF" d="M16.3 12.2H8.1a.6.6 0 01-.6-.6v-1c0-.7.4-1.2 1-1.5l1.3-.5c.2 0 .3-.2.3-.4V4.7c0-1 .4-2 1-2.7.3-.3.7-.5 1-.5.5 0 1 .2 1.2.5a4 4 0 011 2.7v3.5c0 .2 0 .4.2.4l1.4.6c.6.3 1 .9 1 1.5v1c0 .2-.3.5-.6.5zM8.6 11h7.2v-.3c0-.2-.1-.4-.3-.4L14 9.6c-.6-.2-1-.8-1-1.4V4.7c0-.7-.2-1.4-.7-2h-.2-.3a3 3 0 00-.7 2v3.5c0 .6-.4 1.2-1 1.4l-1.3.6c-.2 0-.3.2-.3.4v.4z"/></svg>