<svg xmlns="http://www.w3.org/2000/svg" fill="none" viewBox="0 0 30 30"><defs/><path fill="#5CDEF0" d="M12.7.3c-.5 0-1 .4-1.1.9l-.2.7c-.1.5-.6 1-1.1 1-.6.2-1.2 0-1.5-.3L8.3 2c-.4-.4-1-.5-1.4-.2l-.5.2c-.4.3-.7.8-.5 1.3l.2.7c.1.6 0 1.1-.4 1.5-.5.5-1 .6-1.6.5l-.7-.2c-.5-.2-1 0-1.3.5L2 7c-.3.4-.2 1 .2 1.4l.5.5c.4.3.5 1 .4 1.5-.2.5-.6 1-1.1 1.1l-.7.2c-.5.1-.9.6-.9 1.1v.5c0 .6.4 1 .9 1.1l.7.2c.5.1 1 .6 1 1.1.2.6 0 1.2-.3 1.6l-.5.5c-.4.3-.5 1-.2 1.4l.2.4c.3.5.8.7 1.3.6l.7-.2c.6-.2 1.1 0 1.5.4.5.4.6 1 .5 1.5l-.2.7c-.2.5 0 1 .5 1.3l.5.3c.4.2 1 .1 1.4-.2l.5-.6c.3-.4 1-.5 1.5-.3l.4.1v-3.6a7 7 0 119.2-6.5h5.7v-.3c0-.5-.3-1-.8-1.1l-.7-.2c-.6-.1-1-.6-1.1-1.1-.2-.6 0-1.2.3-1.5l.6-.5c.3-.4.4-1 .2-1.4l-.3-.5c-.3-.4-.8-.7-1.3-.5l-.7.2c-.5.1-1.1 0-1.5-.5-.4-.4-.6-1-.4-1.5l.2-.7c0-.5-.1-1-.6-1.3l-.4-.2c-.5-.3-1-.2-1.4.2l-.5.5c-.4.4-1 .5-1.5.4-.6-.2-1-.6-1.2-1.1l-.2-.7c0-.5-.6-.9-1-.9h-.6zm.3 9.2a3.5 3.5 0 00-2 6.3 4.6 4.6 0 014.3-2.8h1.1c0-2-1.5-3.5-3.4-3.5zm2.3 5.8c-1.3 0-2.3 1-2.3 2.3v10.3c0 .7.5 1.2 1.1 1.2H28c.7 0 1.2-.5 1.2-1.2V17.6c0-1.3-1-2.3-2.3-2.3H15.3zm0 3.4h11.5v8H15.3v-8zM21 20c-.3 0-.6.1-.8.3l-1.5 1.5-.3-.3a1.1 1.1 0 00-2 .5c0 .4 0 .8.4 1l1.1 1.2c.5.5 1.2.5 1.6 0l2.3-2.3c.4-.3.5-.8.3-1.2-.2-.5-.6-.8-1.1-.7z"/></svg>