<svg width="47" height="47" fill="none" xmlns="http://www.w3.org/2000/svg"><path d="M9.5.1c-.9 0-1.8.2-2.6.8a36.5 36.5 0 00-5.8 5.3c-.5.8-1 1.4-1 2.4 0 .8.2 3.4 2 7.3 1.8 4 5.4 9.3 12.4 16.2 6.9 7 12.3 10.5 16.2 12.4 3.9 1.8 6.4 1.9 7.3 2 1 0 1.6-.5 2.3-1a37 37 0 005.3-5.8c1.2-1.7 1-3.6-.3-4.6L36 29c-1.1-.7-2.4-.4-3.6.2l-4.1 2.4c-.6-.4-2.6-1.7-7-6.1a44.2 44.2 0 01-6.1-7l2.3-4.1c.6-1.2 1-2.5.3-3.7a516.7 516.7 0 00-6.3-9.4c-.4-.6-1.1-1-2-1zm13.8 2.2v2a19 19 0 0119 19h2a21 21 0 00-21-21zm-14 0l.4.1a458.5 458.5 0 016.2 9.4s0 .7-.3 1.5L12.9 18l-.3.5.3.5s1.7 2.7 6.8 7.9c5.1 5.1 7.9 6.7 7.9 6.7l.5.3.5-.3 4.7-2.6c.8-.4 1.5-.3 1.5-.3l9.3 6.2s.5.6-.1 1.6a36.6 36.6 0 01-5 5.2c-.5.5-1 .6-1 .6-.8 0-2.8 0-6.4-1.7a58 58 0 01-15.7-12A58 58 0 014 15c-1.7-3.6-1.7-5.6-1.7-6.5l.5-1 1.8-2L8 2.7c.5-.3.9-.3 1.2-.3zm14 5.8v2c7.2 0 13 6 13 13.2h2.2C38.5 14.9 31.7 8 23.3 8zm0 5.7V16c4 0 7.4 3.3 7.4 7.4h2c0-5.2-4.2-9.5-9.4-9.5z" fill="#6279ED"/></svg>