<?xml version="1.0" encoding="UTF-8"?>
<svg xmlns="http://www.w3.org/2000/svg" xmlns:xlink="http://www.w3.org/1999/xlink" width="100pt" height="100pt" viewBox="0 0 100 100" version="1.1">
<g id="surface1">
<path style=" stroke:none;fill-rule:nonzero;fill:#fff;fill-opacity:1;" d="M 49.601563 3.96875 C 24.4375 3.96875 3.96875 24.4375 3.96875 49.601563 C 3.96875 74.769531 24.4375 95.238281 49.601563 95.238281 C 74.769531 95.238281 95.238281 74.769531 95.238281 49.601563 C 95.238281 24.4375 74.769531 3.96875 49.601563 3.96875 Z M 51.585938 21.824219 C 56.554688 21.824219 59.523438 32.925781 59.523438 43.652344 C 59.523438 51.554688 57.6875 59.710938 54.160156 65.777344 C 55.386719 66.917969 56.578125 67.460938 57.539063 67.460938 C 61.398438 67.460938 63.910156 59.917969 65.578125 54.933594 C 65.925781 53.890625 67.058594 53.339844 68.089844 53.671875 C 69.125 54.019531 69.683594 55.144531 69.34375 56.183594 C 67.195313 62.617188 64.257813 71.429688 57.539063 71.429688 C 55.796875 71.429688 53.835938 70.636719 51.953125 69.011719 C 48.796875 72.933594 44.6875 75.398438 39.683594 75.398438 C 33.945313 75.398438 27.777344 71.046875 27.777344 61.507813 C 27.777344 50.539063 35.257813 47.617188 39.683594 47.617188 C 40.761719 47.617188 42.300781 47.90625 43.835938 48.582031 C 43.710938 47.023438 43.652344 45.378906 43.652344 43.652344 C 43.652344 41.417969 43.875 21.824219 51.585938 21.824219 Z M 51.464844 25.808594 C 50.074219 26.1875 47.617188 33.054688 47.617188 43.652344 C 47.617188 47.039063 47.882813 50.023438 48.324219 52.632813 C 48.363281 52.765625 48.386719 52.90625 48.394531 53.035156 C 49.113281 57.027344 50.277344 60.121094 51.578125 62.40625 C 54.199219 57.167969 55.554688 50.308594 55.554688 43.652344 C 55.554688 32.769531 52.710938 26.636719 51.464844 25.808594 Z M 39.683594 51.585938 C 38.355469 51.585938 31.746094 52.066406 31.746094 61.507813 C 31.746094 68.832031 36.015625 71.429688 39.683594 71.429688 C 43.597656 71.429688 46.820313 69.367188 49.324219 66.074219 C 47.292969 63.230469 45.550781 59.214844 44.550781 53.945313 C 43.472656 52.425781 41.046875 51.585938 39.683594 51.585938 Z "/>
</g>
</svg>
