<?xml version="1.0" encoding="UTF-8"?>
<svg xmlns="http://www.w3.org/2000/svg" xmlns:xlink="http://www.w3.org/1999/xlink" width="48pt" height="48pt" viewBox="0 0 48 48" version="1.1">
<g id="surface1">
<path style=" stroke:none;fill-rule:nonzero;fill:#fff;fill-opacity:1;" d="M 34 6 L 14 6 C 9.578125 6 6 9.578125 6 14 L 6 34 C 6 38.421875 9.578125 42 14 42 L 25.242188 42 L 25.242188 28.078125 L 20.554688 28.078125 L 20.554688 22.625 L 25.242188 22.625 L 25.242188 18.617188 C 25.242188 13.96875 28.085938 11.4375 32.234375 11.4375 C 33.632813 11.429688 35.023438 11.507813 36.414063 11.648438 L 36.414063 16.507813 L 33.5625 16.507813 C 31.296875 16.507813 30.859375 17.570313 30.859375 19.148438 L 30.859375 22.617188 L 36.257813 22.617188 L 35.554688 28.070313 L 30.828125 28.070313 L 30.828125 42 L 34 42 C 38.421875 42 42 38.421875 42 34 L 42 14 C 42 9.578125 38.421875 6 34 6 Z "/>
</g>
</svg>
