<?xml version="1.0" encoding="UTF-8"?>
<svg xmlns="http://www.w3.org/2000/svg" xmlns:xlink="http://www.w3.org/1999/xlink" width="60pt" height="60pt" viewBox="0 0 60 60" version="1.1">
<g id="surface1">
<path style=" stroke:none;fill-rule:nonzero;fill:#fff;fill-opacity:1;" d="M 19.738281 5.921875 C 12.121094 5.921875 5.921875 12.121094 5.921875 19.738281 L 5.921875 39.472656 C 5.921875 47.089844 12.121094 53.289063 19.738281 53.289063 L 39.472656 53.289063 C 47.089844 53.289063 53.289063 47.089844 53.289063 39.472656 L 53.289063 19.738281 C 53.289063 12.121094 47.089844 5.921875 39.472656 5.921875 Z M 43.421875 13.816406 C 44.507813 13.816406 45.394531 14.703125 45.394531 15.789063 C 45.394531 16.875 44.507813 17.761719 43.421875 17.761719 C 42.335938 17.761719 41.449219 16.875 41.449219 15.789063 C 41.449219 14.703125 42.335938 13.816406 43.421875 13.816406 Z M 29.605469 17.761719 C 36.136719 17.761719 41.449219 23.074219 41.449219 29.605469 C 41.449219 36.136719 36.136719 41.449219 29.605469 41.449219 C 23.074219 41.449219 17.761719 36.136719 17.761719 29.605469 C 17.761719 23.074219 23.074219 17.761719 29.605469 17.761719 Z M 29.605469 21.710938 C 25.242188 21.710938 21.710938 25.242188 21.710938 29.605469 C 21.710938 33.96875 25.242188 37.5 29.605469 37.5 C 33.96875 37.5 37.5 33.96875 37.5 29.605469 C 37.5 25.242188 33.96875 21.710938 29.605469 21.710938 Z "/>
</g>
</svg>
