<svg xmlns="http://www.w3.org/2000/svg" fill="none" viewBox="0 0 73 54"><defs/><path fill="#FF6626" d="M47.2 53.6l1.2-.3c15.4-6.1 24.3-17.7 24.4-31.6C72.8 9 66 1.2 54.8 1.2c-8.9 0-15.6 5.6-15.7 13.2 0 7.1 6 12.7 14.3 13.2C52.7 33 47 38.4 41.2 41a3.6 3.6 0 00-1.3 5.5l4.2 5.7c.8 1 2 1.5 3.1 1.4zm-38.5-.2c.4 0 .8 0 1.2-.2C25.3 47 34.2 35.5 34.3 21.6 34.3 8.8 27.6 1 16.3 1 7.4 1 .7 6.7.6 14.2c0 7.2 6 12.7 14.3 13.3-.7 5.3-6.5 10.7-12.2 13.4a3.6 3.6 0 00-1.3 5.4L5.6 52c.8 1 2 1.5 3.1 1.4zM47 51.2c-.4 0-.7-.2-1-.5L41.9 45a1.2 1.2 0 01.5-1.8c6.5-3 13.6-9.7 13.6-16.7v-1.2h-1.2c-7.5 0-13.2-4.8-13.2-11 0-6.1 5.8-10.7 13.3-10.7 4.7 0 15.6 1.8 15.6 18.1-.1 18.3-16 26.7-22.9 29.4l-.5.1zM8.5 51c-.4 0-.7-.1-1-.4l-4.2-5.7a1.2 1.2 0 01.5-1.8c6.5-3.2 13.6-9.7 13.6-16.8v-1.2h-1.2C8.7 25.1 3 20.4 3 14.2S8.8 3.4 16.3 3.4C21 3.4 32 5.3 32 21.6c-.1 18.3-16 26.6-22.9 29.3l-.5.1zM52 46.7l.4-.1c.6-.3.8-1 .5-1.6l-1.2-2.1a1.2 1.2 0 00-1.6-.5c-.6.3-.8 1-.5 1.6l1.2 2.1c.2.5.7.7 1.2.6zm-38.5-.1c.1 0 .3 0 .4-.2.6-.3.8-1 .5-1.6l-1.2-2.1a1.2 1.2 0 00-1.6-.5c-.6.3-.8 1-.5 1.7l1.2 2c.2.5.7.7 1.2.7zm42.9-3c.3.1.6 0 .8-.2.6-.4.7-1.1.2-1.7L56 39.8a1.2 1.2 0 00-1.7-.2c-.5.4-.6 1.2-.2 1.7l1.4 2 .9.4zm-38.5 0c.3 0 .6-.1.8-.3.6-.4.7-1.2.2-1.7l-1.4-2a1.2 1.2 0 00-1.7-.1c-.5.4-.6 1.1-.2 1.7L17 43c.3.2.5.4.9.4zm42.8-3.8c.3 0 .6-.1.8-.4.4-.5.4-1.2-.1-1.7l-1.8-1.6a1.2 1.2 0 00-1.7.2c-.5.5-.4 1.2 0 1.7l1.9 1.5c.2.3.6.4.9.3zm-38.5-.1c.3 0 .6-.2.8-.4.4-.5.4-1.3-.1-1.7L21 36a1.2 1.2 0 00-1.7.1c-.5.5-.4 1.3 0 1.7l1.9 1.6c.2.2.6.3.9.3zm41.5-4.5a1.2 1.2 0 00.7-2.2l-2.1-1.2-.6-.1c-.4 0-.9.2-1 .6-.4.6-.2 1.3.4 1.6l2.1 1.2.5.1zm-38.5-.1a1.2 1.2 0 00.7-2.3l-2.1-1.2-.6-.1c-.4 0-.9.2-1 .6-.4.6-.2 1.3.4 1.7l2.1 1.1.5.2zm26-14a1.2 1.2 0 00.2-2.4c-.9-.3-3.9-1.5-3.9-4.3a1.2 1.2 0 00-2.4 0c0 4.4 4.3 6.1 5.6 6.6h.4zm-38.6-.2a1.2 1.2 0 00.3-2.3C12 18.2 9 17 9 14.2a1.2 1.2 0 00-2.4 0c0 4.4 4.3 6.2 5.6 6.6.1 0 .3.1.4 0z"/></svg>