<?xml version="1.0" encoding="UTF-8"?>
<svg xmlns="http://www.w3.org/2000/svg" xmlns:xlink="http://www.w3.org/1999/xlink" width="64pt" height="64pt" viewBox="0 0 64 64" version="1.1">
<g id="surface1">
<path style=" stroke:none;fill-rule:nonzero;fill:#fff;fill-opacity:1;" d="M 56 17.117188 C 54.234375 17.898438 52.335938 18.429688 50.34375 18.664063 C 52.375 17.445313 53.9375 15.515625 54.671875 13.21875 C 52.773438 14.34375 50.664063 15.164063 48.421875 15.609375 C 46.625 13.695313 44.0625 12.492188 41.234375 12.492188 C 35.796875 12.492188 31.382813 16.90625 31.382813 22.34375 C 31.382813 23.117188 31.46875 23.867188 31.640625 24.585938 C 23.453125 24.179688 16.195313 20.257813 11.34375 14.296875 C 10.492188 15.75 10.007813 17.445313 10.007813 19.25 C 10.007813 22.664063 11.742188 25.679688 14.390625 27.445313 C 12.773438 27.390625 11.257813 26.953125 9.929688 26.210938 C 9.929688 26.257813 9.929688 26.296875 9.929688 26.335938 C 9.929688 31.109375 13.320313 35.09375 17.828125 35.992188 C 17 36.21875 16.132813 36.34375 15.234375 36.34375 C 14.601563 36.34375 13.976563 36.28125 13.382813 36.164063 C 14.632813 40.078125 18.273438 42.921875 22.578125 43.007813 C 19.210938 45.648438 14.960938 47.21875 10.351563 47.21875 C 9.554688 47.21875 8.773438 47.171875 8 47.078125 C 12.359375 49.875 17.53125 51.507813 23.09375 51.507813 C 41.210938 51.507813 51.117188 36.5 51.117188 23.484375 C 51.117188 23.0625 51.101563 22.632813 51.085938 22.210938 C 53.007813 20.820313 54.679688 19.085938 56 17.117188 Z "/>
</g>
</svg>
