<svg width="151" height="60" fill="none" xmlns="http://www.w3.org/2000/svg"><path d="M.5 34.5c.4-3 5.1-4.7 10.2-3.8a13 13 0 016.6 3c2-.8 4.6-1.1 7.3-.7a13 13 0 016.7 3.1c2-.8 4.5-1.2 7.3-.7a13 13 0 016.7 3.1c1.9-.9 4.5-1.2 7.3-.7a13 13 0 016.7 3c1.9-.8 4.5-1.1 7.3-.7 5 .9 8.9 4 8.4 7l-4.6-.7c0-.6-1.5-2.2-4.4-2.6-2.9-.5-4.9.4-5 1l-4.6-.8c0-.6-1.5-2.1-4.4-2.6-2.8-.5-4.8.5-5 1l-4.6-.8c.1-.5-1.5-2-4.4-2.6-2.8-.5-4.8.5-5 1l-4.6-.7c.1-.6-1.4-2.1-4.3-2.6s-4.9.5-5 1l-4.6-.8c0-.5-1.5-2.1-4.4-2.6-2.9-.5-4.9.5-5 1l-4.6-.8zM2.8 20c.4-3 5.1-4.7 10.1-3.9a13 13 0 016.7 3.1c2-.8 4.6-1.2 7.3-.7a13 13 0 016.7 3c2-.8 4.5-1.1 7.3-.7a13 13 0 016.7 3.2c1.9-1 4.5-1.3 7.3-.8a13 13 0 016.7 3.1c1.9-.9 4.5-1.2 7.3-.7 5 .8 8.9 4 8.4 7l-4.6-.8c0-.5-1.5-2.1-4.4-2.6-2.9-.5-4.9.5-5 1l-4.6-.7c0-.6-1.5-2.2-4.4-2.7-2.8-.4-4.8.5-5 1l-4.6-.7c0-.6-1.5-2.1-4.4-2.6-2.8-.5-4.8.5-5 1l-4.6-.8c.1-.5-1.4-2-4.3-2.6-2.9-.5-5 .5-5 1l-4.7-.7c.1-.6-1.4-2.2-4.3-2.6-2.9-.5-4.9.4-5 1L2.8 20zM5 5.5c.4-3 5-4.8 10.1-4A13 13 0 0122 4.8c2-.9 4.6-1.2 7.3-.8A13 13 0 0136 7c2-.8 4.5-1.2 7.3-.7a13 13 0 016.7 3.1c1.9-.9 4.5-1.2 7.3-.7a13 13 0 016.7 3c1.9-.8 4.5-1.1 7.3-.7 5 .9 8.9 4.1 8.4 7l-4.6-.7c0-.6-1.5-2.1-4.4-2.6-2.9-.5-4.9.5-5 1l-4.6-.8c0-.5-1.5-2.1-4.4-2.6-2.8-.5-4.9.5-5 1l-4.6-.8c0-.5-1.5-2-4.4-2.6-2.8-.4-4.8.5-5 1l-4.6-.7c.1-.6-1.4-2.1-4.4-2.6-2.8-.5-4.8.5-4.9 1L19 7.8c.1-.5-1.4-2.1-4.3-2.6s-4.9.5-5 1l-4.6-.7z" fill="#6488DF"/><path d="M70.8 46.4c.5-3 5.1-4.7 10.2-3.8a13 13 0 016.7 3c1.9-.8 4.5-1.1 7.3-.7a13 13 0 016.7 3.1c1.9-.8 4.5-1.2 7.3-.7a13 13 0 016.6 3c2-.8 4.6-1.1 7.3-.7a13 13 0 016.7 3.2c2-1 4.5-1.3 7.3-.8 5 .9 9 4 8.5 7l-4.7-.7c.1-.6-1.5-2.2-4.4-2.7-2.8-.4-4.8.5-5 1l-4.6-.7c.1-.6-1.5-2.1-4.3-2.6-2.9-.5-5 .5-5 1l-4.7-.8c.1-.5-1.4-2-4.3-2.6-2.9-.5-4.9.5-5 1l-4.6-.7c0-.6-1.5-2.2-4.4-2.6-2.9-.5-4.9.4-5 1l-4.6-.8c0-.6-1.5-2.1-4.4-2.6-2.8-.5-4.8.5-5 1l-4.6-.8zM73.1 32c.5-3 5.1-4.7 10.2-3.9a13 13 0 016.7 3.1c1.9-.9 4.5-1.2 7.3-.7a13 13 0 016.7 3c1.9-.8 4.5-1.1 7.2-.7a13 13 0 016.7 3.1c2-.8 4.6-1.2 7.3-.7a13 13 0 016.7 3.1c2-.9 4.5-1.2 7.3-.7 5 .8 9 4 8.5 7l-4.7-.8c0-.5-1.5-2.1-4.4-2.6-2.8-.5-4.8.5-5 1l-4.6-.8c.1-.5-1.5-2-4.3-2.6-2.9-.4-5 .5-5 1L115 39c.1-.6-1.4-2.1-4.3-2.6s-4.9.5-5 1l-4.6-.8c0-.5-1.5-2.1-4.4-2.6-2.9-.5-4.9.5-5 1l-4.6-.7c0-.6-1.5-2.2-4.4-2.7-2.8-.4-4.8.5-5 1l-4.6-.7zm2.3-14.6c.5-3 5.1-4.7 10.2-3.8a13 13 0 016.7 3c1.9-.8 4.5-1.1 7.3-.7a13 13 0 016.6 3.1c2-.8 4.6-1.2 7.3-.7a13 13 0 016.7 3.1c2-.9 4.6-1.2 7.3-.7a13 13 0 016.7 3c2-.8 4.5-1.1 7.3-.7 5 .9 9 4.1 8.5 7l-4.7-.7c0-.6-1.5-2.2-4.4-2.6-2.8-.5-4.8.5-5 1l-4.6-.8c.1-.6-1.5-2.1-4.4-2.6-2.8-.5-4.8.5-4.9 1l-4.7-.8c.1-.5-1.4-2-4.3-2.6-2.9-.4-4.9.5-5 1l-4.6-.7c0-.6-1.5-2.1-4.4-2.6-2.9-.5-4.9.5-5 1l-4.6-.8c0-.5-1.5-2.1-4.4-2.6-2.8-.5-4.9.5-5 1l-4.6-.8z" fill="#6488DF"/></svg>