<svg xmlns="http://www.w3.org/2000/svg" fill="none" viewBox="0 0 370 555"><defs/><g filter="url(#filter0_d)"><path fill="#fff" d="M35 206.4l147.5-68.2 151.6 68.2v194.8L186 490.5 35 401.2V206.4z"/></g><g filter="url(#filter1_d)"><path fill="url(#paint0_linear)" d="M119.4 78.2a10 10 0 015-8.6l55-32.4a10 10 0 0110 0l55 32.4c3 1.8 5 5.1 5 8.6V141c0 3.6-2 7-5.3 8.8l-55 29.7a10 10 0 01-9.5 0l-55-29.8a10 10 0 01-5.2-8.7V78.2z"/></g><g filter="url(#filter2_d)"><path fill="#fff" d="M48.5 137.8a5 5 0 012.6-4.4l130.7-69.1a5 5 0 014.7 0l130.7 69.1a5 5 0 012.7 4.4v302.8a5 5 0 01-2.6 4.4l-130.7 73.5a5 5 0 01-4.9 0L51 445a5 5 0 01-2.5-4.4V137.8z"/></g><g filter="url(#filter3_d)"><path fill="url(#paint1_linear)" d="M35 235.2l14.4 12.6 133.1-74.5 135.3 74.5 16.3-12.6v176.9L186 493l-151-81V235.2z"/></g><g clip-path="url(#clip0)" filter="url(#filter4_i)"><path fill="url(#paint2_linear)" d="M193 92.8c-.8 0-1.4.6-1.4 1.3v6.4l-7-7c-.5-.6-1.4-.6-2 0L167.2 109c-.5.5-.5 1.3 0 1.8s1.3.5 1.8 0l14.7-14.6 14.7 14.7c.3.2.6.4 1 .4.3 0 .6-.2.9-.4.5-.6.5-1.4 0-1.9l-4.6-4.6V94c0-.7-.6-1.3-1.3-1.3h-1.4zm-9.4 6L169 113.2v7.4a4 4 0 004 4h21.3a4 4 0 004-4v-7.4l-14.7-14.6zm-2.6 12.5h5.3c.7 0 1.3.6 1.3 1.4v8c0 .7-.6 1.3-1.3 1.3H181c-.8 0-1.4-.6-1.4-1.3v-8c0-.8.6-1.4 1.4-1.4z"/></g><path fill="url(#paint3_linear)" d="M119.4 447a20 20 0 019.9-17.2l45-26.6a20 20 0 0120.3 0l45 26.6a20 20 0 019.8 17.2v51c0 7.4-4 14.1-10.5 17.6l-45 24.4a20 20 0 01-19 0l-45-24.4a20 20 0 01-10.5-17.6v-51z"/><g filter="url(#filter5_i)"><path fill="#fff" d="M131.6 453.4a20 20 0 019.8-17.2l31.6-18.7a20 20 0 0120.4 0l31.6 18.7a20 20 0 019.8 17.2v35.9c0 7.3-4 14-10.5 17.5L192.7 524a20 20 0 01-19 0L142 506.8a20 20 0 01-10.5-17.5v-35.9z"/></g><defs><filter id="filter0_d" width="369.1" height="422.4" x="0" y="103.2" color-interpolation-filters="sRGB" filterUnits="userSpaceOnUse"><feFlood flood-opacity="0" result="BackgroundImageFix"/><feColorMatrix in="SourceAlpha" values="0 0 0 0 0 0 0 0 0 0 0 0 0 0 0 0 0 0 127 0"/><feOffset/><feGaussianBlur stdDeviation="17.5"/><feColorMatrix values="0 0 0 0 0.610229 0 0 0 0 0.756393 0 0 0 0 1 0 0 0 0.45 0"/><feBlend in2="BackgroundImageFix" result="effect1_dropShadow"/><feBlend in="SourceGraphic" in2="effect1_dropShadow" result="shape"/></filter><filter id="filter1_d" width="199.9" height="215" x="84.4" y=".8" color-interpolation-filters="sRGB" filterUnits="userSpaceOnUse"><feFlood flood-opacity="0" result="BackgroundImageFix"/><feColorMatrix in="SourceAlpha" values="0 0 0 0 0 0 0 0 0 0 0 0 0 0 0 0 0 0 127 0"/><feOffset/><feGaussianBlur stdDeviation="17.5"/><feColorMatrix values="0 0 0 0 0.697206 0 0 0 0 0.80605 0 0 0 0 0.987457 0 0 0 0.52 0"/><feBlend in2="BackgroundImageFix" result="effect1_dropShadow"/><feBlend in="SourceGraphic" in2="effect1_dropShadow" result="shape"/></filter><filter id="filter2_d" width="341.4" height="525.5" x="13.5" y="28.7" color-interpolation-filters="sRGB" filterUnits="userSpaceOnUse"><feFlood flood-opacity="0" result="BackgroundImageFix"/><feColorMatrix in="SourceAlpha" values="0 0 0 0 0 0 0 0 0 0 0 0 0 0 0 0 0 0 127 0"/><feOffset/><feGaussianBlur stdDeviation="17.5"/><feColorMatrix values="0 0 0 0 0.610229 0 0 0 0 0.756393 0 0 0 0 1 0 0 0 0.45 0"/><feBlend in2="BackgroundImageFix" result="effect1_dropShadow"/><feBlend in="SourceGraphic" in2="effect1_dropShadow" result="shape"/></filter><filter id="filter3_d" width="369.1" height="389.9" x="0" y="138.3" color-interpolation-filters="sRGB" filterUnits="userSpaceOnUse"><feFlood flood-opacity="0" result="BackgroundImageFix"/><feColorMatrix in="SourceAlpha" values="0 0 0 0 0 0 0 0 0 0 0 0 0 0 0 0 0 0 127 0"/><feOffset/><feGaussianBlur stdDeviation="17.5"/><feColorMatrix values="0 0 0 0 0.610229 0 0 0 0 0.756393 0 0 0 0 1 0 0 0 0.46 0"/><feBlend in2="BackgroundImageFix" result="effect1_dropShadow"/><feBlend in="SourceGraphic" in2="effect1_dropShadow" result="shape"/></filter><filter id="filter4_i" width="33.9" height="35.9" x="166.7" y="92.8" color-interpolation-filters="sRGB" filterUnits="userSpaceOnUse"><feFlood flood-opacity="0" result="BackgroundImageFix"/><feBlend in="SourceGraphic" in2="BackgroundImageFix" result="shape"/><feColorMatrix in="SourceAlpha" result="hardAlpha" values="0 0 0 0 0 0 0 0 0 0 0 0 0 0 0 0 0 0 127 0"/><feOffset dy="4"/><feGaussianBlur stdDeviation="2"/><feComposite in2="hardAlpha" k2="-1" k3="1" operator="arithmetic"/><feColorMatrix values="0 0 0 0 0 0 0 0 0 0 0 0 0 0 0 0 0 0 0.25 0"/><feBlend in2="shape" result="effect1_innerShadow"/></filter><filter id="filter5_i" width="103.2" height="115.7" x="131.6" y="414.7" color-interpolation-filters="sRGB" filterUnits="userSpaceOnUse"><feFlood flood-opacity="0" result="BackgroundImageFix"/><feBlend in="SourceGraphic" in2="BackgroundImageFix" result="shape"/><feColorMatrix in="SourceAlpha" result="hardAlpha" values="0 0 0 0 0 0 0 0 0 0 0 0 0 0 0 0 0 0 127 0"/><feOffset dy="4"/><feGaussianBlur stdDeviation="2"/><feComposite in2="hardAlpha" k2="-1" k3="1" operator="arithmetic"/><feColorMatrix values="0 0 0 0 0 0 0 0 0 0 0 0 0 0 0 0 0 0 0.25 0"/><feBlend in2="shape" result="effect1_innerShadow"/></filter><linearGradient id="paint0_linear" x1="149.5" x2="242.1" y1="129.7" y2="53.6" gradientUnits="userSpaceOnUse"><stop stop-color="#FE288F"/><stop offset="1" stop-color="#FFD8F4"/></linearGradient><linearGradient id="paint1_linear" x1="46" x2="307.5" y1="433.2" y2="299.7" gradientUnits="userSpaceOnUse"><stop stop-color="#FE238C"/><stop offset="1" stop-color="#F384FD"/></linearGradient><linearGradient id="paint2_linear" x1="170.9" x2="198.8" y1="121.9" y2="109.6" gradientUnits="userSpaceOnUse"><stop stop-color="#FE2C92"/><stop offset="1" stop-color="#F8CBFC"/></linearGradient><linearGradient id="paint3_linear" x1="119.4" x2="253" y1="505.1" y2="438.7" gradientUnits="userSpaceOnUse"><stop stop-color="#FE278F"/><stop offset="1" stop-color="#F589FF"/></linearGradient><clipPath id="clip0"><path fill="#fff" d="M0 0h35.1v35.1H0z" transform="translate(166.3 90)"/></clipPath></defs></svg>