<svg xmlns="http://www.w3.org/2000/svg" fill="none" viewBox="0 0 370 555"><defs/><g filter="url(#filter0_d)"><path fill="#fff" d="M35 206.3L182.5 138l151.6 68.3V401L186 490.4 35 401V206.3z"/></g><g filter="url(#filter1_d)"><path fill="url(#paint0_linear)" d="M119.4 78a10 10 0 015-8.5l55-32.5a10 10 0 0110 0l55 32.5c3 1.8 5 5 5 8.6v62.7c0 3.7-2 7-5.3 8.8l-55 29.8a10 10 0 01-9.5 0l-55-29.8a10 10 0 01-5.2-8.8V78.1z"/></g><g filter="url(#filter2_d)"><path fill="#fff" d="M48.5 137.7a5 5 0 012.6-4.4L181.8 64a5 5 0 014.7 0l130.7 69.2a5 5 0 012.7 4.4v302.8a5 5 0 01-2.6 4.3l-130.7 73.6a5 5 0 01-4.9 0L51 444.8a5 5 0 01-2.5-4.3V137.7z"/></g><g filter="url(#filter3_d)"><path fill="url(#paint1_linear)" d="M35 235l14.4 12.6 133.1-74.5 135.3 74.5 16.3-12.5v176.8l-148.1 81-151-81V235.1z"/></g><g clip-path="url(#clip0)" filter="url(#filter4_i)"><path fill="url(#paint2_linear)" d="M193 92.6c-.8 0-1.4.6-1.4 1.3v6.4l-7-7c-.5-.5-1.4-.5-2 0l-15.5 15.6c-.5.5-.5 1.4 0 1.9s1.3.5 1.8 0L183.6 96l14.7 14.7c.3.3.6.4 1 .4.3 0 .6-.1.9-.4.5-.5.5-1.3 0-1.9l-4.6-4.6V94c0-.7-.6-1.3-1.3-1.3h-1.4zm-9.4 6L169 113.2v7.3a4 4 0 004 4h21.3a4 4 0 004-4v-7.3l-14.7-14.6zm-2.6 12.6h5.3c.7 0 1.3.6 1.3 1.3v8c0 .7-.6 1.3-1.3 1.3H181c-.8 0-1.4-.6-1.4-1.3v-8c0-.7.6-1.3 1.4-1.3z"/></g><path fill="url(#paint3_linear)" d="M119.4 446.8a20 20 0 019.9-17.2l45-26.5a20 20 0 0120.3 0l45 26.5a20 20 0 019.8 17.2v51c0 7.4-4 14.2-10.5 17.7l-45 24.3a20 20 0 01-19 0l-45-24.3a20 20 0 01-10.5-17.6v-51z"/><g filter="url(#filter5_i)"><path fill="#fff" d="M132 453.3a20 20 0 019.8-17.2l31.6-18.7a20 20 0 0120.4 0l31.6 18.7a20 20 0 019.8 17.2V489c0 7.3-4 14-10.5 17.6l-31.6 17.1a20 20 0 01-19 0l-31.6-17.1A20 20 0 01132 489v-35.8z"/></g><defs><filter id="filter0_d" width="369.1" height="422.4" x="0" y="103" color-interpolation-filters="sRGB" filterUnits="userSpaceOnUse"><feFlood flood-opacity="0" result="BackgroundImageFix"/><feColorMatrix in="SourceAlpha" values="0 0 0 0 0 0 0 0 0 0 0 0 0 0 0 0 0 0 127 0"/><feOffset/><feGaussianBlur stdDeviation="17.5"/><feColorMatrix values="0 0 0 0 0.610229 0 0 0 0 0.756393 0 0 0 0 1 0 0 0 0.45 0"/><feBlend in2="BackgroundImageFix" result="effect1_dropShadow"/><feBlend in="SourceGraphic" in2="effect1_dropShadow" result="shape"/></filter><filter id="filter1_d" width="199.9" height="215" x="84.4" y=".6" color-interpolation-filters="sRGB" filterUnits="userSpaceOnUse"><feFlood flood-opacity="0" result="BackgroundImageFix"/><feColorMatrix in="SourceAlpha" values="0 0 0 0 0 0 0 0 0 0 0 0 0 0 0 0 0 0 127 0"/><feOffset/><feGaussianBlur stdDeviation="17.5"/><feColorMatrix values="0 0 0 0 0.697206 0 0 0 0 0.80605 0 0 0 0 0.987457 0 0 0 0.52 0"/><feBlend in2="BackgroundImageFix" result="effect1_dropShadow"/><feBlend in="SourceGraphic" in2="effect1_dropShadow" result="shape"/></filter><filter id="filter2_d" width="341.4" height="525.5" x="13.5" y="28.5" color-interpolation-filters="sRGB" filterUnits="userSpaceOnUse"><feFlood flood-opacity="0" result="BackgroundImageFix"/><feColorMatrix in="SourceAlpha" values="0 0 0 0 0 0 0 0 0 0 0 0 0 0 0 0 0 0 127 0"/><feOffset/><feGaussianBlur stdDeviation="17.5"/><feColorMatrix values="0 0 0 0 0.610229 0 0 0 0 0.756393 0 0 0 0 1 0 0 0 0.45 0"/><feBlend in2="BackgroundImageFix" result="effect1_dropShadow"/><feBlend in="SourceGraphic" in2="effect1_dropShadow" result="shape"/></filter><filter id="filter3_d" width="369.1" height="389.9" x="0" y="138.1" color-interpolation-filters="sRGB" filterUnits="userSpaceOnUse"><feFlood flood-opacity="0" result="BackgroundImageFix"/><feColorMatrix in="SourceAlpha" values="0 0 0 0 0 0 0 0 0 0 0 0 0 0 0 0 0 0 127 0"/><feOffset/><feGaussianBlur stdDeviation="17.5"/><feColorMatrix values="0 0 0 0 0.610229 0 0 0 0 0.756393 0 0 0 0 1 0 0 0 0.46 0"/><feBlend in2="BackgroundImageFix" result="effect1_dropShadow"/><feBlend in="SourceGraphic" in2="effect1_dropShadow" result="shape"/></filter><filter id="filter4_i" width="33.9" height="35.9" x="166.7" y="92.6" color-interpolation-filters="sRGB" filterUnits="userSpaceOnUse"><feFlood flood-opacity="0" result="BackgroundImageFix"/><feBlend in="SourceGraphic" in2="BackgroundImageFix" result="shape"/><feColorMatrix in="SourceAlpha" result="hardAlpha" values="0 0 0 0 0 0 0 0 0 0 0 0 0 0 0 0 0 0 127 0"/><feOffset dy="4"/><feGaussianBlur stdDeviation="2"/><feComposite in2="hardAlpha" k2="-1" k3="1" operator="arithmetic"/><feColorMatrix values="0 0 0 0 0 0 0 0 0 0 0 0 0 0 0 0 0 0 0.25 0"/><feBlend in2="shape" result="effect1_innerShadow"/></filter><filter id="filter5_i" width="103.2" height="115.7" x="132" y="414.6" color-interpolation-filters="sRGB" filterUnits="userSpaceOnUse"><feFlood flood-opacity="0" result="BackgroundImageFix"/><feBlend in="SourceGraphic" in2="BackgroundImageFix" result="shape"/><feColorMatrix in="SourceAlpha" result="hardAlpha" values="0 0 0 0 0 0 0 0 0 0 0 0 0 0 0 0 0 0 127 0"/><feOffset dy="4"/><feGaussianBlur stdDeviation="2"/><feComposite in2="hardAlpha" k2="-1" k3="1" operator="arithmetic"/><feColorMatrix values="0 0 0 0 0 0 0 0 0 0 0 0 0 0 0 0 0 0 0.25 0"/><feBlend in2="shape" result="effect1_innerShadow"/></filter><linearGradient id="paint0_linear" x1="132.1" x2="242.1" y1="108.3" y2="53.5" gradientUnits="userSpaceOnUse"><stop stop-color="#FB2323"/><stop offset="1" stop-color="#FF9E60"/></linearGradient><linearGradient id="paint1_linear" x1="306.2" x2="41.1" y1="244" y2="367.6" gradientUnits="userSpaceOnUse"><stop stop-color="#FFA462"/><stop offset="1" stop-color="#FB2323"/></linearGradient><linearGradient id="paint2_linear" x1="170.9" x2="198.8" y1="121.8" y2="109.4" gradientUnits="userSpaceOnUse"><stop stop-color="#FC4233"/><stop offset="1" stop-color="#FFA463"/></linearGradient><linearGradient id="paint3_linear" x1="119.4" x2="253" y1="504.9" y2="438.5" gradientUnits="userSpaceOnUse"><stop stop-color="#FB2323"/><stop offset="1" stop-color="#FF9E60"/></linearGradient><clipPath id="clip0"><path fill="#fff" d="M0 0h35.1v35.1H0z" transform="translate(166.3 90)"/></clipPath></defs></svg>