<svg xmlns="http://www.w3.org/2000/svg" fill="none" viewBox="0 0 370 511"><defs/><path fill="#fff" d="M35 172.3L182.5 104l151.6 68.3V367L186 456.4 35 367V172.3z"/><path fill="url(#paint0_linear)" d="M119.4 44a10 10 0 015-8.5l55-32.5a10 10 0 0110 0l55 32.5c3 1.8 5 5 5 8.6v62.7c0 3.7-2 7-5.3 8.8l-55 29.8a10 10 0 01-9.5 0l-55-29.8a10 10 0 01-5.2-8.8V44.1z"/><g filter="url(#filter0_d)"><path fill="#fff" d="M48.5 103.7a5 5 0 012.6-4.4L181.8 30a5 5 0 014.7 0l130.7 69.2a5 5 0 012.7 4.4v302.8a5 5 0 01-2.6 4.3l-130.7 73.6a5 5 0 01-4.9 0L51 410.8a5 5 0 01-2.5-4.3V103.7z"/></g><g filter="url(#filter1_d)"><path fill="url(#paint1_linear)" d="M35 201l14.4 12.6 133.1-74.5 135.3 74.5 16.3-12.5v176.8l-148.1 81-151-81V201.1z"/></g><path fill="url(#paint2_linear)" d="M120 412.8a20 20 0 019.8-17.2l45-26.5a20 20 0 0120.3 0l45 26.5a20 20 0 019.8 17.2v51c0 7.4-4 14.2-10.5 17.7l-45 24.3a20 20 0 01-19 0l-45-24.3a20 20 0 01-10.4-17.6v-51z"/><g filter="url(#filter2_i)"><path fill="#fff" d="M133 419.3a20 20 0 019.8-17.2l31.6-18.7a20 20 0 0120.4 0l31.6 18.7a20 20 0 019.8 17.2V455c0 7.3-4 14-10.5 17.6l-31.6 17.1a20 20 0 01-19 0l-31.6-17.1A20 20 0 01133 455v-35.8z"/></g><g filter="url(#filter3_i)"><path fill="url(#paint3_linear)" d="M190.3 54.2v3.1h8v-3.1h-8zm0 6.3v6.3h-4.7l-1.6-4.7-6.3 4.7-1.6-4.7-6.3 4.7v17.5h12.6c0-3.2 3.2-3.2 3.2-3.2v-8c0-1.7 1.4-3.1 3.2-3.1h9.4v-9.5h-7.9zM173 70h3.2v3.2h-3.2V70zm6.3 0h3.2v3.2h-3.2V70zm9.6 3.2v11h-3.2c0 2.7 2.1 4.8 4.7 4.8h8c2.6 0 4.7-2.1 4.7-4.8v-11h-14.3zm-15.9 3.1h3.2v3.2h-3.2v-3.2zm6.3 0h3.2v3.2h-3.2v-3.2zm12.7 0h8v8c0 .8-.8 1.5-1.7 1.5-.8 0-1.5-.7-1.5-1.5h-4.8v-8z"/></g><defs><linearGradient id="paint0_linear" x1="140" x2="221.5" y1="102" y2="32" gradientUnits="userSpaceOnUse"><stop stop-color="#881DEC"/><stop offset="1" stop-color="#EF88F9"/></linearGradient><linearGradient id="paint1_linear" x1="30.5" x2="334.1" y1="405.5" y2="149.5" gradientUnits="userSpaceOnUse"><stop stop-color="#8014EB"/><stop offset="1" stop-color="#FF99FB"/></linearGradient><linearGradient id="paint2_linear" x1="140.1" x2="236.6" y1="480.5" y2="404.5" gradientUnits="userSpaceOnUse"><stop stop-color="#7F14EB"/><stop offset="1" stop-color="#FF98FB"/></linearGradient><linearGradient id="paint3_linear" x1="155.5" x2="219" y1="93" y2="58.5" gradientUnits="userSpaceOnUse"><stop stop-color="#8014EB"/><stop offset="1" stop-color="#FF99FB"/></linearGradient><filter id="filter0_d" width="311.4" height="495.5" x="28.5" y="9.5" color-interpolation-filters="sRGB" filterUnits="userSpaceOnUse"><feFlood flood-opacity="0" result="BackgroundImageFix"/><feColorMatrix in="SourceAlpha" values="0 0 0 0 0 0 0 0 0 0 0 0 0 0 0 0 0 0 127 0"/><feOffset/><feGaussianBlur stdDeviation="10"/><feColorMatrix values="0 0 0 0 0.770388 0 0 0 0 0.853351 0 0 0 0 0.991623 0 0 0 0.45 0"/><feBlend in2="BackgroundImageFix" result="effect1_dropShadow"/><feBlend in="SourceGraphic" in2="effect1_dropShadow" result="shape"/></filter><filter id="filter1_d" width="369.1" height="389.9" x="0" y="104.1" color-interpolation-filters="sRGB" filterUnits="userSpaceOnUse"><feFlood flood-opacity="0" result="BackgroundImageFix"/><feColorMatrix in="SourceAlpha" values="0 0 0 0 0 0 0 0 0 0 0 0 0 0 0 0 0 0 127 0"/><feOffset/><feGaussianBlur stdDeviation="17.5"/><feColorMatrix values="0 0 0 0 0.610229 0 0 0 0 0.756393 0 0 0 0 1 0 0 0 0.46 0"/><feBlend in2="BackgroundImageFix" result="effect1_dropShadow"/><feBlend in="SourceGraphic" in2="effect1_dropShadow" result="shape"/></filter><filter id="filter2_i" width="103.2" height="115.7" x="133" y="380.6" color-interpolation-filters="sRGB" filterUnits="userSpaceOnUse"><feFlood flood-opacity="0" result="BackgroundImageFix"/><feBlend in="SourceGraphic" in2="BackgroundImageFix" result="shape"/><feColorMatrix in="SourceAlpha" result="hardAlpha" values="0 0 0 0 0 0 0 0 0 0 0 0 0 0 0 0 0 0 127 0"/><feOffset dy="4"/><feGaussianBlur stdDeviation="2"/><feComposite in2="hardAlpha" k2="-1" k3="1" operator="arithmetic"/><feColorMatrix values="0 0 0 0 0 0 0 0 0 0 0 0 0 0 0 0 0 0 0.25 0"/><feBlend in2="shape" result="effect1_innerShadow"/></filter><filter id="filter3_i" width="33.3" height="38.8" x="169.8" y="54.2" color-interpolation-filters="sRGB" filterUnits="userSpaceOnUse"><feFlood flood-opacity="0" result="BackgroundImageFix"/><feBlend in="SourceGraphic" in2="BackgroundImageFix" result="shape"/><feColorMatrix in="SourceAlpha" result="hardAlpha" values="0 0 0 0 0 0 0 0 0 0 0 0 0 0 0 0 0 0 127 0"/><feOffset dy="4"/><feGaussianBlur stdDeviation="2"/><feComposite in2="hardAlpha" k2="-1" k3="1" operator="arithmetic"/><feColorMatrix values="0 0 0 0 0 0 0 0 0 0 0 0 0 0 0 0 0 0 0.25 0"/><feBlend in2="shape" result="effect1_innerShadow"/></filter></defs></svg>